<?xml version="1.0" encoding="UTF-8" standalone="no"?>
<svg xmlns="http://www.w3.org/2000/svg"
     xmlns:xlink="http://www.w3.org/1999/xlink"
     width="576px" height="432px" viewBox="0 0 576 432">
<title>gl2ps_renderer figure</title>
<desc>
Creator: GL2PS 1.4.0, (C) 1999-2017 C. Geuzaine
For: Octave
CreationDate: Tue Sep 22 15:10:25 2020
</desc>
<defs>
</defs>
<polygon fill="#ffffff" points="0,0 576,0 576,432 0,432"/>
<g>
<polygon fill="#ffffff" points="0,432 576,432 576,0 0,0" shape-rendering="crispEdges"/>
<clipPath id="cp00576432">
  <polygon points="0,432 576,432 576,0 0,0"/>
</clipPath>
<g clip-path="url(#cp00576432)">
<polygon fill="#ffffff" shape-rendering="crispEdges" points="74.88,384.48 483.371,384.48 74.88,32.4"/>
<polygon fill="#ffffff" shape-rendering="crispEdges" points="483.371,384.48 483.371,32.4 74.88,32.4"/>
<polyline fill="none" stroke="#262626" stroke-width="0.5" stroke-linecap="butt" stroke-linejoin="miter" stroke-opacity="0.15" stroke-dasharray="16,0" points="74.88,384.48 74.88,32.4"/>
<polyline fill="none" stroke="#262626" stroke-width="0.5" stroke-linecap="butt" stroke-linejoin="miter" stroke-opacity="0.15" stroke-dasharray="16,0" points="177.003,384.48 177.003,32.4"/>
<polyline fill="none" stroke="#262626" stroke-width="0.5" stroke-linecap="butt" stroke-linejoin="miter" stroke-opacity="0.15" stroke-dasharray="16,0" points="279.125,384.48 279.125,32.4"/>
<polyline fill="none" stroke="#262626" stroke-width="0.5" stroke-linecap="butt" stroke-linejoin="miter" stroke-opacity="0.15" stroke-dasharray="16,0" points="381.248,384.48 381.248,32.4"/>
<polyline fill="none" stroke="#262626" stroke-width="0.5" stroke-linecap="butt" stroke-linejoin="miter" stroke-opacity="0.15" stroke-dasharray="16,0" points="483.371,384.48 483.371,32.4"/>
<polyline fill="none" stroke="#262626" stroke-width="0.5" stroke-linecap="butt" stroke-linejoin="miter" points="74.88,384.48 74.88,380.394"/>
<polyline fill="none" stroke="#262626" stroke-width="0.5" stroke-linecap="butt" stroke-linejoin="miter" points="74.88,32.4 74.88,36.4858"/>
<polyline fill="none" stroke="#262626" stroke-width="0.5" stroke-linecap="butt" stroke-linejoin="miter" points="177.003,384.48 177.003,380.394"/>
<polyline fill="none" stroke="#262626" stroke-width="0.5" stroke-linecap="butt" stroke-linejoin="miter" points="177.003,32.4 177.003,36.4858"/>
<polyline fill="none" stroke="#262626" stroke-width="0.5" stroke-linecap="butt" stroke-linejoin="miter" points="279.125,384.48 279.125,380.394"/>
<polyline fill="none" stroke="#262626" stroke-width="0.5" stroke-linecap="butt" stroke-linejoin="miter" points="279.125,32.4 279.125,36.4858"/>
<polyline fill="none" stroke="#262626" stroke-width="0.5" stroke-linecap="butt" stroke-linejoin="miter" points="381.248,384.48 381.248,380.394"/>
<polyline fill="none" stroke="#262626" stroke-width="0.5" stroke-linecap="butt" stroke-linejoin="miter" points="381.248,32.4 381.248,36.4858"/>
<polyline fill="none" stroke="#262626" stroke-width="0.5" stroke-linecap="butt" stroke-linejoin="miter" points="483.371,384.48 483.371,380.394"/>
<polyline fill="none" stroke="#262626" stroke-width="0.5" stroke-linecap="butt" stroke-linejoin="miter" points="483.371,32.4 483.371,36.4858"/>
<text fill="#262626" x="74.88" y="389.481" font-size="10" text-anchor="middle" dy="10" font-family="Helvetica">0</text>
<text fill="#262626" x="177.003" y="389.481" font-size="10" text-anchor="middle" dy="10" font-family="Helvetica">50</text>
<text fill="#262626" x="279.125" y="389.481" font-size="10" text-anchor="middle" dy="10" font-family="Helvetica">100</text>
<text fill="#262626" x="381.248" y="389.481" font-size="10" text-anchor="middle" dy="10" font-family="Helvetica">150</text>
<text fill="#262626" x="483.371" y="389.481" font-size="10" text-anchor="middle" dy="10" font-family="Helvetica">200</text>
<polyline fill="none" stroke="#262626" stroke-width="0.5" stroke-linecap="butt" stroke-linejoin="miter" stroke-opacity="0.15" stroke-dasharray="16,0" points="74.88,384.48 483.371,384.48"/>
<polyline fill="none" stroke="#262626" stroke-width="0.5" stroke-linecap="butt" stroke-linejoin="miter" stroke-opacity="0.15" stroke-dasharray="16,0" points="74.88,296.46 483.371,296.46"/>
<polyline fill="none" stroke="#262626" stroke-width="0.5" stroke-linecap="butt" stroke-linejoin="miter" stroke-opacity="0.15" stroke-dasharray="16,0" points="74.88,208.44 483.371,208.44"/>
<polyline fill="none" stroke="#262626" stroke-width="0.5" stroke-linecap="butt" stroke-linejoin="miter" stroke-opacity="0.15" stroke-dasharray="16,0" points="74.88,120.42 483.371,120.42"/>
<polyline fill="none" stroke="#262626" stroke-width="0.5" stroke-linecap="butt" stroke-linejoin="miter" stroke-opacity="0.15" stroke-dasharray="16,0" points="74.88,32.4 483.371,32.4"/>
<polyline fill="none" stroke="#262626" stroke-width="0.5" stroke-linecap="butt" stroke-linejoin="miter" points="74.88,384.48 78.9698,384.48"/>
<polyline fill="none" stroke="#262626" stroke-width="0.5" stroke-linecap="butt" stroke-linejoin="miter" points="483.371,384.48 479.281,384.48"/>
<polyline fill="none" stroke="#262626" stroke-width="0.5" stroke-linecap="butt" stroke-linejoin="miter" points="74.88,296.46 78.9698,296.46"/>
<polyline fill="none" stroke="#262626" stroke-width="0.5" stroke-linecap="butt" stroke-linejoin="miter" points="483.371,296.46 479.281,296.46"/>
<polyline fill="none" stroke="#262626" stroke-width="0.5" stroke-linecap="butt" stroke-linejoin="miter" points="74.88,208.44 78.9698,208.44"/>
<polyline fill="none" stroke="#262626" stroke-width="0.5" stroke-linecap="butt" stroke-linejoin="miter" points="483.371,208.44 479.281,208.44"/>
<polyline fill="none" stroke="#262626" stroke-width="0.5" stroke-linecap="butt" stroke-linejoin="miter" points="74.88,120.42 78.9698,120.42"/>
<polyline fill="none" stroke="#262626" stroke-width="0.5" stroke-linecap="butt" stroke-linejoin="miter" points="483.371,120.42 479.281,120.42"/>
<polyline fill="none" stroke="#262626" stroke-width="0.5" stroke-linecap="butt" stroke-linejoin="miter" points="74.88,32.4 78.9698,32.4"/>
<polyline fill="none" stroke="#262626" stroke-width="0.5" stroke-linecap="butt" stroke-linejoin="miter" points="483.371,32.4 479.281,32.4"/>
<text fill="#262626" x="69.874" y="384.48" font-size="10" text-anchor="end" dy="5" font-family="Helvetica">-200</text>
<text fill="#262626" x="69.874" y="296.46" font-size="10" text-anchor="end" dy="5" font-family="Helvetica">-150</text>
<text fill="#262626" x="69.874" y="208.44" font-size="10" text-anchor="end" dy="5" font-family="Helvetica">-100</text>
<text fill="#262626" x="69.874" y="120.42" font-size="10" text-anchor="end" dy="5" font-family="Helvetica">-50</text>
<text fill="#262626" x="69.874" y="32.4" font-size="10" text-anchor="end" dy="5" font-family="Helvetica">0</text>
<polyline fill="none" stroke="#262626" stroke-width="0.5" stroke-linecap="butt" stroke-linejoin="miter" stroke-dasharray="16,0" points="74.88,384.48 483.371,384.48"/>
<polyline fill="none" stroke="#262626" stroke-width="0.5" stroke-linecap="butt" stroke-linejoin="miter" stroke-dasharray="16,0" points="74.88,32.4 483.371,32.4"/>
<polyline fill="none" stroke="#262626" stroke-width="0.5" stroke-linecap="butt" stroke-linejoin="miter" stroke-dasharray="16,0" points="74.88,384.48 74.88,32.4"/>
<polyline fill="none" stroke="#262626" stroke-width="0.5" stroke-linecap="butt" stroke-linejoin="miter" stroke-dasharray="16,0" points="483.371,384.48 483.371,32.4"/>
<text fill="#262626" x="279.125" y="402.481" font-size="11" text-anchor="middle" dy="11" font-family="Helvetica">Muestras</text>
<text fill="#262626" x="43.874" y="208.44" font-size="11" transform="rotate(-90, 43.874, 208.44)" text-anchor="middle" dy="0" font-family="Helvetica">Error</text>
<polyline fill="none" stroke="#0071bc" stroke-width="1" stroke-linecap="butt" stroke-linejoin="miter" points="76.9225,366.876 78.9649,368.636 81.0074,368.636 83.0498,366.876 85.0923,361.595 87.1347,342.23 89.1772,326.387 91.2196,308.783 93.2621,291.179 95.3045,273.575 97.347,254.21 99.3895,234.846 101.432,215.482 103.474,171.472 105.517,123.941 107.559,76.41 109.602,41.202 111.644,41.202 113.687,41.202 115.729,42.9624 117.772,42.9624 119.814,42.9624 121.856,42.9624 123.899,42.9624 125.941,42.9624 127.984,42.9624 130.026,42.9624 132.069,42.9624 134.111,42.9624 136.154,42.9624 138.196,42.9624 140.239,42.9624 142.281,42.9624 144.323,42.9624 146.366,42.9624 148.408,42.9624 150.451,42.9624 152.493,42.9624 154.536,42.9624 156.578,42.9624 158.621,42.9624 160.663,42.9624 162.706,42.9624 164.748,42.9624 166.79,42.9624 168.833,42.9624 170.875,44.7228 172.918,44.7228 174.96,44.7228 177.003,42.9624 179.045,44.7228 181.088,44.7228 183.13,42.9624 185.173,44.7228 187.215,44.7228 189.257,42.9624 191.3,42.9624 193.342,42.9624 195.385,42.9624 197.427,44.7228 199.47,44.7228 201.512,44.7228 203.555,44.7228 205.597,42.9624 207.64,42.9624 209.682,44.7228 211.724,42.9624 213.767,42.9624 215.809,42.9624 217.852,42.9624 219.894,42.9624 221.937,42.9624 223.979,44.7228 226.022,42.9624 228.064,44.7228 230.107,42.9624 232.149,44.7228 234.191,42.9624 236.234,44.7228 238.276,44.7228 240.319,44.7228 242.361,42.9624 244.404,44.7228 246.446,44.7228 248.489,42.9624 250.531,44.7228 252.574,42.9624 254.616,44.7228 256.658,42.9624 258.701,42.9624 260.743,42.9624 262.786,44.7228 264.828,42.9624 266.871,42.9624 268.913,44.7228 270.956,42.9624 272.998,44.7228 275.04,44.7228 277.083,44.7228 279.125,44.7228 281.168,42.9624 283.21,44.7228 285.253,44.7228 287.295,44.7228 289.338,44.7228 291.38,42.9624 293.423,42.9624 295.465,42.9624 297.508,44.7228 299.55,42.9624 301.592,42.9624 303.635,44.7228 305.677,42.9624 307.72,44.7228 309.762,44.7228 311.805,42.9624 313.847,42.9624 315.89,42.9624 317.932,44.7228 319.975,44.7228 322.017,42.9624 324.059,42.9624 326.102,42.9624 328.144,44.7228 330.187,42.9624 332.229,44.7228 334.272,42.9624 336.314,42.9624 338.357,42.9624 340.399,44.7228 342.442,42.9624 344.484,42.9624 346.526,42.9624 348.569,44.7228 350.611,44.7228 352.654,42.9624 354.696,44.7228 356.739,42.9624 358.781,42.9624 360.824,44.7228 362.866,44.7228 364.909,42.9624 366.951,42.9624 368.993,42.9624 371.036,44.7228 373.078,42.9624 375.121,44.7228 377.163,44.7228 379.206,44.7228 381.248,44.7228 383.291,44.7228 385.333,44.7228 387.375,44.7228 389.418,44.7228 391.46,44.7228 393.503,44.7228 395.545,44.7228 397.588,44.7228 399.63,44.7228 401.673,42.9624 403.715,44.7228 405.758,44.7228 407.8,44.7228 409.842,44.7228 411.885,44.7228 413.927,42.9624 415.97,44.7228 418.012,42.9624 420.055,42.9624 422.097,42.9624 424.14,44.7228 426.182,44.7228 428.225,42.9624"/>
<polyline fill="none" stroke="#d85218" stroke-width="3" stroke-linecap="butt" stroke-linejoin="miter" points="76.9225,32.4 78.9649,32.4 81.0074,32.4 83.0498,32.4 85.0923,32.4 87.1347,32.4 89.1772,32.4 91.2196,32.4 93.2621,32.4 95.3045,32.4 97.347,32.4 99.3895,32.4 101.432,32.4 103.474,32.4 105.517,32.4 107.559,32.4 109.602,32.4 111.644,32.4 113.687,32.4 115.729,32.4 117.772,32.4 119.814,32.4 121.856,32.4 123.899,32.4 125.941,32.4 127.984,32.4 130.026,32.4 132.069,32.4 134.111,32.4 136.154,32.4 138.196,32.4 140.239,32.4 142.281,32.4 144.323,32.4 146.366,32.4 148.408,32.4 150.451,32.4 152.493,32.4 154.536,32.4 156.578,32.4 158.621,32.4 160.663,32.4 162.706,32.4 164.748,32.4 166.79,32.4 168.833,32.4 170.875,32.4 172.918,32.4 174.96,32.4 177.003,32.4 179.045,32.4 181.088,32.4 183.13,32.4 185.173,32.4 187.215,32.4 189.257,32.4 191.3,32.4 193.342,32.4 195.385,32.4 197.427,32.4 199.47,32.4 201.512,32.4 203.555,32.4 205.597,32.4 207.64,32.4 209.682,32.4 211.724,32.4 213.767,32.4 215.809,32.4 217.852,32.4 219.894,32.4 221.937,32.4 223.979,32.4 226.022,32.4 228.064,32.4 230.107,32.4 232.149,32.4 234.191,32.4 236.234,32.4 238.276,32.4 240.319,32.4 242.361,32.4 244.404,32.4 246.446,32.4 248.489,32.4 250.531,32.4 252.574,32.4 254.616,32.4 256.658,32.4 258.701,32.4 260.743,32.4 262.786,32.4 264.828,32.4 266.871,32.4 268.913,32.4 270.956,32.4 272.998,32.4 275.04,32.4 277.083,32.4 279.125,32.4 281.168,32.4 283.21,32.4 285.253,32.4 287.295,32.4 289.338,32.4 291.38,32.4 293.423,32.4 295.465,32.4 297.508,32.4 299.55,32.4 301.592,32.4 303.635,32.4 305.677,32.4 307.72,32.4 309.762,32.4 311.805,32.4 313.847,32.4 315.89,32.4 317.932,32.4 319.975,32.4 322.017,32.4 324.059,32.4 326.102,32.4 328.144,32.4 330.187,32.4 332.229,32.4 334.272,32.4 336.314,32.4 338.357,32.4 340.399,32.4 342.442,32.4 344.484,32.4 346.526,32.4 348.569,32.4 350.611,32.4 352.654,32.4 354.696,32.4 356.739,32.4 358.781,32.4 360.824,32.4 362.866,32.4 364.909,32.4 366.951,32.4 368.993,32.4 371.036,32.4 373.078,32.4 375.121,32.4 377.163,32.4 379.206,32.4 381.248,32.4 383.291,32.4 385.333,32.4 387.375,32.4 389.418,32.4 391.46,32.4 393.503,32.4 395.545,32.4 397.588,32.4 399.63,32.4 401.673,32.4 403.715,32.4 405.758,32.4 407.8,32.4 409.842,32.4 411.885,32.4 413.927,32.4 415.97,32.4 418.012,32.4 420.055,32.4 422.097,32.4 424.14,32.4 426.182,32.4 428.225,32.4"/>
<text fill="#000000" x="279.125" y="22.4" font-size="11" text-anchor="middle" dy="0" font-family="Helvetica" font-weight="bold">Control en Pitch</text>
</g>
<clipPath id="cp00576432">
  <polygon points="0,432 576,432 576,0 0,0"/>
</clipPath>
<g clip-path="url(#cp00576432)">
<polygon fill="#ffffff" shape-rendering="crispEdges" points="488.865,64.6371 573.253,64.6371 488.865,32.4"/>
<polygon fill="#ffffff" shape-rendering="crispEdges" points="573.253,64.6371 573.253,32.4 488.865,32.4"/>
<polyline fill="none" stroke="#262626" stroke-width="0.5" stroke-linecap="butt" stroke-linejoin="miter" stroke-dasharray="16,0" points="488.865,64.6371 573.253,64.6371"/>
<polyline fill="none" stroke="#262626" stroke-width="0.5" stroke-linecap="butt" stroke-linejoin="miter" stroke-dasharray="16,0" points="488.865,32.4 573.253,32.4"/>
<polyline fill="none" stroke="#262626" stroke-width="0.5" stroke-linecap="butt" stroke-linejoin="miter" stroke-dasharray="16,0" points="488.865,64.6371 488.865,32.4"/>
<polyline fill="none" stroke="#262626" stroke-width="0.5" stroke-linecap="butt" stroke-linejoin="miter" stroke-dasharray="16,0" points="573.253,64.6371 573.253,32.4"/>
<text fill="#000000" x="514.963" y="40.4593" font-size="10" text-anchor="start" dy="5" font-family="Helvetica">Control P</text>
<text fill="#000000" x="514.963" y="56.5779" font-size="10" text-anchor="start" dy="5" font-family="Helvetica">Referencia</text>
<polyline fill="none" stroke="#0071bc" stroke-width="1" stroke-linecap="butt" stroke-linejoin="miter" points="491.612,40.4593 512.216,40.4593"/>
<polyline fill="none" stroke="#d85218" stroke-width="3" stroke-linecap="butt" stroke-linejoin="miter" points="491.612,56.5779 512.216,56.5779"/>
</g>
</g>
</svg>
