<?xml version="1.0" encoding="UTF-8" standalone="no"?>
<svg xmlns="http://www.w3.org/2000/svg"
     xmlns:xlink="http://www.w3.org/1999/xlink"
     width="576px" height="432px" viewBox="0 0 576 432">
<title>gl2ps_renderer figure</title>
<desc>
Creator: GL2PS 1.4.0, (C) 1999-2017 C. Geuzaine
For: Octave
CreationDate: Tue Sep 22 15:04:41 2020
</desc>
<defs>
</defs>
<polygon fill="#ffffff" points="0,0 576,0 576,432 0,432"/>
<g>
<polygon fill="#ffffff" points="0,432 576,432 576,0 0,0" shape-rendering="crispEdges"/>
<clipPath id="cp00576432">
  <polygon points="0,432 576,432 576,0 0,0"/>
</clipPath>
<g clip-path="url(#cp00576432)">
<polygon fill="#ffffff" shape-rendering="crispEdges" points="74.88,384.48 483.371,384.48 74.88,32.4"/>
<polygon fill="#ffffff" shape-rendering="crispEdges" points="483.371,384.48 483.371,32.4 74.88,32.4"/>
<polyline fill="none" stroke="#262626" stroke-width="0.5" stroke-linecap="butt" stroke-linejoin="miter" stroke-opacity="0.15" stroke-dasharray="16,0" points="74.88,384.48 74.88,32.4"/>
<polyline fill="none" stroke="#262626" stroke-width="0.5" stroke-linecap="butt" stroke-linejoin="miter" stroke-opacity="0.15" stroke-dasharray="16,0" points="133.236,384.48 133.236,32.4"/>
<polyline fill="none" stroke="#262626" stroke-width="0.5" stroke-linecap="butt" stroke-linejoin="miter" stroke-opacity="0.15" stroke-dasharray="16,0" points="191.592,384.48 191.592,32.4"/>
<polyline fill="none" stroke="#262626" stroke-width="0.5" stroke-linecap="butt" stroke-linejoin="miter" stroke-opacity="0.15" stroke-dasharray="16,0" points="249.947,384.48 249.947,32.4"/>
<polyline fill="none" stroke="#262626" stroke-width="0.5" stroke-linecap="butt" stroke-linejoin="miter" stroke-opacity="0.15" stroke-dasharray="16,0" points="308.303,384.48 308.303,32.4"/>
<polyline fill="none" stroke="#262626" stroke-width="0.5" stroke-linecap="butt" stroke-linejoin="miter" stroke-opacity="0.15" stroke-dasharray="16,0" points="366.659,384.48 366.659,32.4"/>
<polyline fill="none" stroke="#262626" stroke-width="0.5" stroke-linecap="butt" stroke-linejoin="miter" stroke-opacity="0.15" stroke-dasharray="16,0" points="425.015,384.48 425.015,32.4"/>
<polyline fill="none" stroke="#262626" stroke-width="0.5" stroke-linecap="butt" stroke-linejoin="miter" stroke-opacity="0.15" stroke-dasharray="16,0" points="483.371,384.48 483.371,32.4"/>
<polyline fill="none" stroke="#262626" stroke-width="0.5" stroke-linecap="butt" stroke-linejoin="miter" points="74.88,384.48 74.88,380.394"/>
<polyline fill="none" stroke="#262626" stroke-width="0.5" stroke-linecap="butt" stroke-linejoin="miter" points="74.88,32.4 74.88,36.4858"/>
<polyline fill="none" stroke="#262626" stroke-width="0.5" stroke-linecap="butt" stroke-linejoin="miter" points="133.236,384.48 133.236,380.394"/>
<polyline fill="none" stroke="#262626" stroke-width="0.5" stroke-linecap="butt" stroke-linejoin="miter" points="133.236,32.4 133.236,36.4858"/>
<polyline fill="none" stroke="#262626" stroke-width="0.5" stroke-linecap="butt" stroke-linejoin="miter" points="191.592,384.48 191.592,380.394"/>
<polyline fill="none" stroke="#262626" stroke-width="0.5" stroke-linecap="butt" stroke-linejoin="miter" points="191.592,32.4 191.592,36.4858"/>
<polyline fill="none" stroke="#262626" stroke-width="0.5" stroke-linecap="butt" stroke-linejoin="miter" points="249.947,384.48 249.947,380.394"/>
<polyline fill="none" stroke="#262626" stroke-width="0.5" stroke-linecap="butt" stroke-linejoin="miter" points="249.947,32.4 249.947,36.4858"/>
<polyline fill="none" stroke="#262626" stroke-width="0.5" stroke-linecap="butt" stroke-linejoin="miter" points="308.303,384.48 308.303,380.394"/>
<polyline fill="none" stroke="#262626" stroke-width="0.5" stroke-linecap="butt" stroke-linejoin="miter" points="308.303,32.4 308.303,36.4858"/>
<polyline fill="none" stroke="#262626" stroke-width="0.5" stroke-linecap="butt" stroke-linejoin="miter" points="366.659,384.48 366.659,380.394"/>
<polyline fill="none" stroke="#262626" stroke-width="0.5" stroke-linecap="butt" stroke-linejoin="miter" points="366.659,32.4 366.659,36.4858"/>
<polyline fill="none" stroke="#262626" stroke-width="0.5" stroke-linecap="butt" stroke-linejoin="miter" points="425.015,384.48 425.015,380.394"/>
<polyline fill="none" stroke="#262626" stroke-width="0.5" stroke-linecap="butt" stroke-linejoin="miter" points="425.015,32.4 425.015,36.4858"/>
<polyline fill="none" stroke="#262626" stroke-width="0.5" stroke-linecap="butt" stroke-linejoin="miter" points="483.371,384.48 483.371,380.394"/>
<polyline fill="none" stroke="#262626" stroke-width="0.5" stroke-linecap="butt" stroke-linejoin="miter" points="483.371,32.4 483.371,36.4858"/>
<text fill="#262626" x="74.88" y="389.481" font-size="10" text-anchor="middle" dy="10" font-family="Helvetica">0</text>
<text fill="#262626" x="133.236" y="389.481" font-size="10" text-anchor="middle" dy="10" font-family="Helvetica">50</text>
<text fill="#262626" x="191.592" y="389.481" font-size="10" text-anchor="middle" dy="10" font-family="Helvetica">100</text>
<text fill="#262626" x="249.948" y="389.481" font-size="10" text-anchor="middle" dy="10" font-family="Helvetica">150</text>
<text fill="#262626" x="308.303" y="389.481" font-size="10" text-anchor="middle" dy="10" font-family="Helvetica">200</text>
<text fill="#262626" x="366.659" y="389.481" font-size="10" text-anchor="middle" dy="10" font-family="Helvetica">250</text>
<text fill="#262626" x="425.015" y="389.481" font-size="10" text-anchor="middle" dy="10" font-family="Helvetica">300</text>
<text fill="#262626" x="483.371" y="389.481" font-size="10" text-anchor="middle" dy="10" font-family="Helvetica">350</text>
<polyline fill="none" stroke="#262626" stroke-width="0.5" stroke-linecap="butt" stroke-linejoin="miter" stroke-opacity="0.15" stroke-dasharray="16,0" points="74.88,384.48 483.371,384.48"/>
<polyline fill="none" stroke="#262626" stroke-width="0.5" stroke-linecap="butt" stroke-linejoin="miter" stroke-opacity="0.15" stroke-dasharray="16,0" points="74.88,314.064 483.371,314.064"/>
<polyline fill="none" stroke="#262626" stroke-width="0.5" stroke-linecap="butt" stroke-linejoin="miter" stroke-opacity="0.15" stroke-dasharray="16,0" points="74.88,243.648 483.371,243.648"/>
<polyline fill="none" stroke="#262626" stroke-width="0.5" stroke-linecap="butt" stroke-linejoin="miter" stroke-opacity="0.15" stroke-dasharray="16,0" points="74.88,173.232 483.371,173.232"/>
<polyline fill="none" stroke="#262626" stroke-width="0.5" stroke-linecap="butt" stroke-linejoin="miter" stroke-opacity="0.15" stroke-dasharray="16,0" points="74.88,102.816 483.371,102.816"/>
<polyline fill="none" stroke="#262626" stroke-width="0.5" stroke-linecap="butt" stroke-linejoin="miter" stroke-opacity="0.15" stroke-dasharray="16,0" points="74.88,32.4 483.371,32.4"/>
<polyline fill="none" stroke="#262626" stroke-width="0.5" stroke-linecap="butt" stroke-linejoin="miter" points="74.88,384.48 78.9698,384.48"/>
<polyline fill="none" stroke="#262626" stroke-width="0.5" stroke-linecap="butt" stroke-linejoin="miter" points="483.371,384.48 479.281,384.48"/>
<polyline fill="none" stroke="#262626" stroke-width="0.5" stroke-linecap="butt" stroke-linejoin="miter" points="74.88,314.064 78.9698,314.064"/>
<polyline fill="none" stroke="#262626" stroke-width="0.5" stroke-linecap="butt" stroke-linejoin="miter" points="483.371,314.064 479.281,314.064"/>
<polyline fill="none" stroke="#262626" stroke-width="0.5" stroke-linecap="butt" stroke-linejoin="miter" points="74.88,243.648 78.9698,243.648"/>
<polyline fill="none" stroke="#262626" stroke-width="0.5" stroke-linecap="butt" stroke-linejoin="miter" points="483.371,243.648 479.281,243.648"/>
<polyline fill="none" stroke="#262626" stroke-width="0.5" stroke-linecap="butt" stroke-linejoin="miter" points="74.88,173.232 78.9698,173.232"/>
<polyline fill="none" stroke="#262626" stroke-width="0.5" stroke-linecap="butt" stroke-linejoin="miter" points="483.371,173.232 479.281,173.232"/>
<polyline fill="none" stroke="#262626" stroke-width="0.5" stroke-linecap="butt" stroke-linejoin="miter" points="74.88,102.816 78.9698,102.816"/>
<polyline fill="none" stroke="#262626" stroke-width="0.5" stroke-linecap="butt" stroke-linejoin="miter" points="483.371,102.816 479.281,102.816"/>
<polyline fill="none" stroke="#262626" stroke-width="0.5" stroke-linecap="butt" stroke-linejoin="miter" points="74.88,32.4 78.9698,32.4"/>
<polyline fill="none" stroke="#262626" stroke-width="0.5" stroke-linecap="butt" stroke-linejoin="miter" points="483.371,32.4 479.281,32.4"/>
<text fill="#262626" x="69.874" y="384.48" font-size="10" text-anchor="end" dy="5" font-family="Helvetica">-250</text>
<text fill="#262626" x="69.874" y="314.064" font-size="10" text-anchor="end" dy="5" font-family="Helvetica">-200</text>
<text fill="#262626" x="69.874" y="243.648" font-size="10" text-anchor="end" dy="5" font-family="Helvetica">-150</text>
<text fill="#262626" x="69.874" y="173.232" font-size="10" text-anchor="end" dy="5" font-family="Helvetica">-100</text>
<text fill="#262626" x="69.874" y="102.816" font-size="10" text-anchor="end" dy="5" font-family="Helvetica">-50</text>
<text fill="#262626" x="69.874" y="32.4" font-size="10" text-anchor="end" dy="5" font-family="Helvetica">0</text>
<polyline fill="none" stroke="#262626" stroke-width="0.5" stroke-linecap="butt" stroke-linejoin="miter" stroke-dasharray="16,0" points="74.88,384.48 483.371,384.48"/>
<polyline fill="none" stroke="#262626" stroke-width="0.5" stroke-linecap="butt" stroke-linejoin="miter" stroke-dasharray="16,0" points="74.88,32.4 483.371,32.4"/>
<polyline fill="none" stroke="#262626" stroke-width="0.5" stroke-linecap="butt" stroke-linejoin="miter" stroke-dasharray="16,0" points="74.88,384.48 74.88,32.4"/>
<polyline fill="none" stroke="#262626" stroke-width="0.5" stroke-linecap="butt" stroke-linejoin="miter" stroke-dasharray="16,0" points="483.371,384.48 483.371,32.4"/>
<text fill="#262626" x="279.125" y="402.481" font-size="11" text-anchor="middle" dy="11" font-family="Helvetica">Muestras</text>
<text fill="#262626" x="43.874" y="208.44" font-size="11" transform="rotate(-90, 43.874, 208.44)" text-anchor="middle" dy="0" font-family="Helvetica">Error</text>
<polyline fill="none" stroke="#0071bc" stroke-width="1" stroke-linecap="butt" stroke-linejoin="miter" points="76.0471,366.172 77.2142,366.172 78.3813,366.172 79.5485,366.172 80.7156,366.172 81.8827,367.58 83.0498,366.172 84.2169,366.172 85.384,366.172 86.5512,366.172 87.7183,366.172 88.8854,366.172 90.0525,366.172 91.2196,367.58 92.3867,366.172 93.5539,366.172 94.721,366.172 95.8881,366.172 97.0552,366.172 98.2223,366.172 99.3895,366.172 100.557,366.172 101.724,366.172 102.891,366.172 104.058,366.172 105.225,366.172 106.392,366.172 107.559,366.172 108.726,366.172 109.893,357.722 111.061,340.822 112.228,325.331 113.395,312.656 114.562,294.348 115.729,278.856 116.896,263.365 118.063,247.873 119.23,232.381 120.398,192.949 121.565,150.699 122.732,111.266 123.899,71.833 125.066,60.5664 126.233,63.3831 127.4,63.3831 128.567,63.3831 129.734,63.3831 130.902,63.3831 132.069,63.3831 133.236,63.3831 134.403,63.3831 135.57,63.3831 136.737,63.3831 137.904,63.3831 139.071,63.3831 140.239,63.3831 141.406,64.7914 142.573,63.3831 143.74,64.7914 144.907,64.7914 146.074,64.7914 147.241,63.3831 148.408,63.3831 149.575,64.7914 150.743,64.7914 151.91,64.7914 153.077,63.3831 154.244,64.7914 155.411,63.3831 156.578,64.7914 157.745,64.7914 158.912,63.3831 160.08,63.3831 161.247,64.7914 162.414,64.7914 163.581,64.7914 164.748,63.3831 165.915,64.7914 167.082,64.7914 168.249,64.7914 169.416,64.7914 170.584,63.3831 171.751,63.3831 172.918,64.7914 174.085,64.7914 175.252,63.3831 176.419,64.7914 177.586,64.7914 178.753,64.7914 179.921,64.7914 181.088,64.7914 182.255,64.7914 183.422,64.7914 184.589,63.3831 185.756,64.7914 186.923,64.7914 188.09,64.7914 189.257,64.7914 190.425,64.7914 191.592,64.7914 192.759,64.7914 193.926,64.7914 195.093,64.7914 196.26,64.7914 197.427,64.7914 198.594,64.7914 199.761,64.7914 200.929,64.7914 202.096,64.7914 203.263,64.7914 204.43,64.7914 205.597,64.7914 206.764,64.7914 207.931,63.3831 209.098,64.7914 210.266,64.7914 211.433,64.7914 212.6,64.7914 213.767,64.7914 214.934,64.7914 216.101,64.7914 217.268,64.7914 218.435,64.7914 219.602,64.7914 220.77,64.7914 221.937,64.7914 223.104,64.7914 224.271,64.7914 225.438,64.7914 226.605,64.7914 227.772,64.7914 228.939,64.7914 230.107,64.7914 231.274,64.7914 232.441,63.3831 233.608,64.7914 234.775,64.7914 235.942,64.7914 237.109,64.7914 238.276,64.7914 239.443,64.7914 240.611,64.7914 241.778,64.7914 242.945,64.7914 244.112,64.7914 245.279,64.7914 246.446,64.7914 247.613,64.7914 248.78,63.3831 249.947,64.7914 251.115,64.7914 252.282,64.7914 253.449,63.3831 254.616,64.7914 255.783,63.3831 256.95,64.7914 258.117,64.7914 259.284,63.3831 260.452,64.7914 261.619,64.7914 262.786,64.7914 263.953,63.3831 265.12,64.7914 266.287,64.7914 267.454,64.7914 268.621,63.3831 269.788,63.3831 270.956,63.3831 272.123,63.3831 273.29,64.7914 274.457,64.7914 275.624,64.7914 276.791,64.7914 277.958,64.7914 279.125,64.7914 280.293,64.7914 281.46,64.7914 282.627,64.7914 283.794,64.7914 284.961,64.7914 286.128,64.7914 287.295,63.3831 288.462,64.7914 289.629,64.7914 290.797,64.7914 291.964,64.7914 293.131,64.7914 294.298,64.7914 295.465,63.3831 296.632,64.7914 297.799,63.3831 298.966,64.7914 300.134,64.7914 301.301,64.7914 302.468,64.7914 303.635,64.7914 304.802,64.7914 305.969,64.7914 307.136,63.3831 308.303,64.7914 309.47,64.7914 310.638,63.3831 311.805,64.7914 312.972,64.7914 314.139,63.3831 315.306,64.7914 316.473,64.7914 317.64,64.7914 318.807,64.7914 319.975,64.7914 321.142,63.3831 322.309,64.7914 323.476,64.7914 324.643,64.7914 325.81,64.7914 326.977,64.7914 328.144,64.7914 329.311,64.7914 330.479,64.7914 331.646,64.7914 332.813,64.7914 333.98,64.7914 335.147,64.7914 336.314,64.7914 337.481,63.3831 338.648,64.7914 339.815,63.3831 340.983,64.7914 342.15,64.7914 343.317,64.7914 344.484,64.7914 345.651,63.3831 346.818,64.7914 347.985,64.7914 349.152,64.7914 350.32,64.7914 351.487,63.3831 352.654,64.7914 353.821,64.7914 354.988,64.7914 356.155,64.7914 357.322,63.3831 358.489,64.7914 359.656,64.7914 360.824,64.7914 361.991,64.7914 363.158,64.7914 364.325,64.7914 365.492,64.7914 366.659,64.7914 367.826,64.7914 368.993,64.7914 370.161,64.7914 371.328,64.7914 372.495,64.7914 373.662,64.7914 374.829,64.7914 375.996,64.7914 377.163,64.7914 378.33,64.7914 379.497,63.3831 380.665,63.3831 381.832,64.7914 382.999,63.3831 384.166,64.7914 385.333,64.7914 386.5,63.3831 387.667,64.7914 388.834,64.7914 390.001,64.7914 391.169,64.7914 392.336,64.7914 393.503,64.7914 394.67,64.7914 395.837,64.7914 397.004,64.7914 398.171,64.7914 399.338,64.7914 400.506,64.7914 401.673,64.7914 402.84,63.3831 404.007,64.7914 405.174,64.7914 406.341,63.3831 407.508,64.7914 408.675,64.7914 409.842,64.7914 411.01,64.7914 412.177,63.3831 413.344,64.7914 414.511,63.3831 415.678,64.7914 416.845,63.3831 418.012,64.7914 419.179,64.7914 420.347,64.7914 421.514,64.7914 422.681,64.7914 423.848,64.7914 425.015,64.7914 426.182,64.7914 427.349,64.7914 428.516,64.7914 429.683,64.7914 430.851,64.7914 432.018,64.7914 433.185,64.7914 434.352,64.7914 435.519,63.3831 436.686,63.3831 437.853,64.7914 439.02,63.3831 440.188,64.7914 441.355,63.3831 442.522,64.7914 443.689,64.7914 444.856,64.7914 446.023,64.7914 447.19,64.7914 448.357,64.7914 449.524,64.7914 450.692,63.3831 451.859,64.7914 453.026,64.7914"/>
<polyline fill="none" stroke="#d85218" stroke-width="3" stroke-linecap="butt" stroke-linejoin="miter" points="76.0471,32.4 77.2142,32.4 78.3813,32.4 79.5485,32.4 80.7156,32.4 81.8827,32.4 83.0498,32.4 84.2169,32.4 85.384,32.4 86.5512,32.4 87.7183,32.4 88.8854,32.4 90.0525,32.4 91.2196,32.4 92.3867,32.4 93.5539,32.4 94.721,32.4 95.8881,32.4 97.0552,32.4 98.2223,32.4 99.3895,32.4 100.557,32.4 101.724,32.4 102.891,32.4 104.058,32.4 105.225,32.4 106.392,32.4 107.559,32.4 108.726,32.4 109.893,32.4 111.061,32.4 112.228,32.4 113.395,32.4 114.562,32.4 115.729,32.4 116.896,32.4 118.063,32.4 119.23,32.4 120.398,32.4 121.565,32.4 122.732,32.4 123.899,32.4 125.066,32.4 126.233,32.4 127.4,32.4 128.567,32.4 129.734,32.4 130.902,32.4 132.069,32.4 133.236,32.4 134.403,32.4 135.57,32.4 136.737,32.4 137.904,32.4 139.071,32.4 140.239,32.4 141.406,32.4 142.573,32.4 143.74,32.4 144.907,32.4 146.074,32.4 147.241,32.4 148.408,32.4 149.575,32.4 150.743,32.4 151.91,32.4 153.077,32.4 154.244,32.4 155.411,32.4 156.578,32.4 157.745,32.4 158.912,32.4 160.08,32.4 161.247,32.4 162.414,32.4 163.581,32.4 164.748,32.4 165.915,32.4 167.082,32.4 168.249,32.4 169.416,32.4 170.584,32.4 171.751,32.4 172.918,32.4 174.085,32.4 175.252,32.4 176.419,32.4 177.586,32.4 178.753,32.4 179.921,32.4 181.088,32.4 182.255,32.4 183.422,32.4 184.589,32.4 185.756,32.4 186.923,32.4 188.09,32.4 189.257,32.4 190.425,32.4 191.592,32.4 192.759,32.4 193.926,32.4 195.093,32.4 196.26,32.4 197.427,32.4 198.594,32.4 199.761,32.4 200.929,32.4 202.096,32.4 203.263,32.4 204.43,32.4 205.597,32.4 206.764,32.4 207.931,32.4 209.098,32.4 210.266,32.4 211.433,32.4 212.6,32.4 213.767,32.4 214.934,32.4 216.101,32.4 217.268,32.4 218.435,32.4 219.602,32.4 220.77,32.4 221.937,32.4 223.104,32.4 224.271,32.4 225.438,32.4 226.605,32.4 227.772,32.4 228.939,32.4 230.107,32.4 231.274,32.4 232.441,32.4 233.608,32.4 234.775,32.4 235.942,32.4 237.109,32.4 238.276,32.4 239.443,32.4 240.611,32.4 241.778,32.4 242.945,32.4 244.112,32.4 245.279,32.4 246.446,32.4 247.613,32.4 248.78,32.4 249.947,32.4 251.115,32.4 252.282,32.4 253.449,32.4 254.616,32.4 255.783,32.4 256.95,32.4 258.117,32.4 259.284,32.4 260.452,32.4 261.619,32.4 262.786,32.4 263.953,32.4 265.12,32.4 266.287,32.4 267.454,32.4 268.621,32.4 269.788,32.4 270.956,32.4 272.123,32.4 273.29,32.4 274.457,32.4 275.624,32.4 276.791,32.4 277.958,32.4 279.125,32.4 280.293,32.4 281.46,32.4 282.627,32.4 283.794,32.4 284.961,32.4 286.128,32.4 287.295,32.4 288.462,32.4 289.629,32.4 290.797,32.4 291.964,32.4 293.131,32.4 294.298,32.4 295.465,32.4 296.632,32.4 297.799,32.4 298.966,32.4 300.134,32.4 301.301,32.4 302.468,32.4 303.635,32.4 304.802,32.4 305.969,32.4 307.136,32.4 308.303,32.4 309.47,32.4 310.638,32.4 311.805,32.4 312.972,32.4 314.139,32.4 315.306,32.4 316.473,32.4 317.64,32.4 318.807,32.4 319.975,32.4 321.142,32.4 322.309,32.4 323.476,32.4 324.643,32.4 325.81,32.4 326.977,32.4 328.144,32.4 329.311,32.4 330.479,32.4 331.646,32.4 332.813,32.4 333.98,32.4 335.147,32.4 336.314,32.4 337.481,32.4 338.648,32.4 339.815,32.4 340.983,32.4 342.15,32.4 343.317,32.4 344.484,32.4 345.651,32.4 346.818,32.4 347.985,32.4 349.152,32.4 350.32,32.4 351.487,32.4 352.654,32.4 353.821,32.4 354.988,32.4 356.155,32.4 357.322,32.4 358.489,32.4 359.656,32.4 360.824,32.4 361.991,32.4 363.158,32.4 364.325,32.4 365.492,32.4 366.659,32.4 367.826,32.4 368.993,32.4 370.161,32.4 371.328,32.4 372.495,32.4 373.662,32.4 374.829,32.4 375.996,32.4 377.163,32.4 378.33,32.4 379.497,32.4 380.665,32.4 381.832,32.4 382.999,32.4 384.166,32.4 385.333,32.4 386.5,32.4 387.667,32.4 388.834,32.4 390.001,32.4 391.169,32.4 392.336,32.4 393.503,32.4 394.67,32.4 395.837,32.4 397.004,32.4 398.171,32.4 399.338,32.4 400.506,32.4 401.673,32.4 402.84,32.4 404.007,32.4 405.174,32.4 406.341,32.4 407.508,32.4 408.675,32.4 409.842,32.4 411.01,32.4 412.177,32.4 413.344,32.4 414.511,32.4 415.678,32.4 416.845,32.4 418.012,32.4 419.179,32.4 420.347,32.4 421.514,32.4 422.681,32.4 423.848,32.4 425.015,32.4 426.182,32.4 427.349,32.4 428.516,32.4 429.683,32.4 430.851,32.4 432.018,32.4 433.185,32.4 434.352,32.4 435.519,32.4 436.686,32.4 437.853,32.4 439.02,32.4 440.188,32.4 441.355,32.4 442.522,32.4 443.689,32.4 444.856,32.4 446.023,32.4 447.19,32.4 448.357,32.4 449.524,32.4 450.692,32.4 451.859,32.4 453.026,32.4"/>
<text fill="#000000" x="279.125" y="22.4" font-size="11" text-anchor="middle" dy="0" font-family="Helvetica" font-weight="bold">Control en Pitch</text>
</g>
<clipPath id="cp00576432">
  <polygon points="0,432 576,432 576,0 0,0"/>
</clipPath>
<g clip-path="url(#cp00576432)">
<polygon fill="#ffffff" shape-rendering="crispEdges" points="488.865,64.6371 573.253,64.6371 488.865,32.4"/>
<polygon fill="#ffffff" shape-rendering="crispEdges" points="573.253,64.6371 573.253,32.4 488.865,32.4"/>
<polyline fill="none" stroke="#262626" stroke-width="0.5" stroke-linecap="butt" stroke-linejoin="miter" stroke-dasharray="16,0" points="488.865,64.6371 573.253,64.6371"/>
<polyline fill="none" stroke="#262626" stroke-width="0.5" stroke-linecap="butt" stroke-linejoin="miter" stroke-dasharray="16,0" points="488.865,32.4 573.253,32.4"/>
<polyline fill="none" stroke="#262626" stroke-width="0.5" stroke-linecap="butt" stroke-linejoin="miter" stroke-dasharray="16,0" points="488.865,64.6371 488.865,32.4"/>
<polyline fill="none" stroke="#262626" stroke-width="0.5" stroke-linecap="butt" stroke-linejoin="miter" stroke-dasharray="16,0" points="573.253,64.6371 573.253,32.4"/>
<text fill="#000000" x="514.963" y="40.4593" font-size="10" text-anchor="start" dy="5" font-family="Helvetica">Control P</text>
<text fill="#000000" x="514.963" y="56.5779" font-size="10" text-anchor="start" dy="5" font-family="Helvetica">Referencia</text>
<polyline fill="none" stroke="#0071bc" stroke-width="1" stroke-linecap="butt" stroke-linejoin="miter" points="491.612,40.4593 512.216,40.4593"/>
<polyline fill="none" stroke="#d85218" stroke-width="3" stroke-linecap="butt" stroke-linejoin="miter" points="491.612,56.5779 512.216,56.5779"/>
</g>
</g>
</svg>
