<?xml version="1.0" encoding="UTF-8" standalone="no"?><svg xmlns="http://www.w3.org/2000/svg" xmlns:xlink="http://www.w3.org/1999/xlink" contentScriptType="application/ecmascript" contentStyleType="text/css" height="682px" preserveAspectRatio="none" style="width:298px;height:682px;" version="1.1" viewBox="0 0 298 682" width="298px" zoomAndPan="magnify"><defs><filter height="300%" id="f19ajkc8n3oxgg" width="300%" x="-1" y="-1"><feGaussianBlur result="blurOut" stdDeviation="2.0"/><feColorMatrix in="blurOut" result="blurOut2" type="matrix" values="0 0 0 0 0 0 0 0 0 0 0 0 0 0 0 0 0 0 .4 0"/><feOffset dx="4.0" dy="4.0" in="blurOut2" result="blurOut3"/><feBlend in="SourceGraphic" in2="blurOut3" mode="normal"/></filter></defs><g><ellipse cx="137.5" cy="20" fill="#000000" filter="url(#f19ajkc8n3oxgg)" rx="10" ry="10" style="stroke: none; stroke-width: 1.0;"/><rect fill="#FEFECE" filter="url(#f19ajkc8n3oxgg)" height="33.9688" rx="12.5" ry="12.5" style="stroke: #A80036; stroke-width: 1.5;" width="216" x="29.5" y="50"/><text fill="#000000" font-family="sans-serif" font-size="12" lengthAdjust="spacingAndGlyphs" textLength="196" x="39.5" y="71.1387">Inicializar variables (Ganancias)</text><rect fill="#FEFECE" filter="url(#f19ajkc8n3oxgg)" height="33.9688" rx="12.5" ry="12.5" style="stroke: #A80036; stroke-width: 1.5;" width="105" x="85" y="103.9688"/><text fill="#000000" font-family="sans-serif" font-size="12" lengthAdjust="spacingAndGlyphs" textLength="85" x="95" y="125.1074">Inicializar ROS</text><rect fill="#FEFECE" filter="url(#f19ajkc8n3oxgg)" height="33.9688" rx="12.5" ry="12.5" style="stroke: #A80036; stroke-width: 1.5;" width="255" x="10" y="157.9375"/><text fill="#000000" font-family="sans-serif" font-size="12" lengthAdjust="spacingAndGlyphs" textLength="235" x="20" y="179.0762">Inicializar motores a 1450 ms de PWM</text><rect fill="#FEFECE" filter="url(#f19ajkc8n3oxgg)" height="33.9688" rx="12.5" ry="12.5" style="stroke: #A80036; stroke-width: 1.5;" width="120" x="77.5" y="265.875"/><text fill="#000000" font-family="sans-serif" font-size="12" lengthAdjust="spacingAndGlyphs" textLength="100" x="87.5" y="287.0137">Calcular errores</text><rect fill="#FEFECE" filter="url(#f19ajkc8n3oxgg)" height="33.9688" rx="12.5" ry="12.5" style="stroke: #A80036; stroke-width: 1.5;" width="215" x="30" y="319.8438"/><text fill="#000000" font-family="sans-serif" font-size="12" lengthAdjust="spacingAndGlyphs" textLength="195" x="40" y="340.9824">Calcular la suma de los errores</text><rect fill="#FEFECE" filter="url(#f19ajkc8n3oxgg)" height="33.9688" rx="12.5" ry="12.5" style="stroke: #A80036; stroke-width: 1.5;" width="246" x="14.5" y="373.8125"/><text fill="#000000" font-family="sans-serif" font-size="12" lengthAdjust="spacingAndGlyphs" textLength="226" x="24.5" y="394.9512">Obtener valores de ganancias Kp, Ki</text><rect fill="#FEFECE" filter="url(#f19ajkc8n3oxgg)" height="33.9688" rx="12.5" ry="12.5" style="stroke: #A80036; stroke-width: 1.5;" width="85" x="95" y="427.7813"/><text fill="#000000" font-family="sans-serif" font-size="12" lengthAdjust="spacingAndGlyphs" textLength="65" x="105" y="448.9199">Calcular PI</text><rect fill="#FEFECE" filter="url(#f19ajkc8n3oxgg)" height="33.9688" rx="12.5" ry="12.5" style="stroke: #A80036; stroke-width: 1.5;" width="190" x="42.5" y="481.75"/><text fill="#000000" font-family="sans-serif" font-size="12" lengthAdjust="spacingAndGlyphs" textLength="170" x="52.5" y="502.8887">Convertir PI a valor de PWM</text><ellipse cx="137.5" cy="545.7188" fill="#FEFECE" filter="url(#f19ajkc8n3oxgg)" rx="10" ry="10" style="stroke: #A80036; stroke-width: 1.5;"/><path d="M137.6094,541.8906 L136,546.2344 L139.2188,546.2344 L137.6094,541.8906 Z M136.9375,540.7188 L138.2813,540.7188 L141.6094,549.4688 L140.375,549.4688 L139.5781,547.2188 L135.6406,547.2188 L134.8438,549.4688 L133.5938,549.4688 L136.9375,540.7188 Z "/><ellipse cx="137.5" cy="575.7188" fill="#FEFECE" filter="url(#f19ajkc8n3oxgg)" rx="10" ry="10" style="stroke: #A80036; stroke-width: 1.5;"/><path d="M136.3594,576.0469 L136.3594,579.25 L138.2656,579.25 Q139.2188,579.25 139.6719,578.8594 Q140.1406,578.4531 140.1406,577.6406 Q140.1406,576.8125 139.6719,576.4375 Q139.2188,576.0469 138.2656,576.0469 L136.3594,576.0469 Z M136.3594,572.4375 L136.3594,575.0781 L138.1094,575.0781 Q138.9844,575.0781 139.4063,574.75 Q139.8281,574.4219 139.8281,573.7656 Q139.8281,573.0938 139.4063,572.7656 Q138.9844,572.4375 138.1094,572.4375 L136.3594,572.4375 Z M135.1719,571.4688 L138.2031,571.4688 Q139.5625,571.4688 140.2813,572.0313 Q141.0156,572.5938 141.0156,573.625 Q141.0156,574.4375 140.6406,574.9219 Q140.2656,575.3906 139.5469,575.5 Q140.4219,575.6875 140.9063,576.2813 Q141.3906,576.875 141.3906,577.7656 Q141.3906,578.9375 140.5938,579.5781 Q139.7969,580.2188 138.3125,580.2188 L135.1719,580.2188 L135.1719,571.4688 Z "/><rect fill="#FEFECE" filter="url(#f19ajkc8n3oxgg)" height="33.9688" rx="12.5" ry="12.5" style="stroke: #A80036; stroke-width: 1.5;" width="235" x="20" y="211.9063"/><text fill="#000000" font-family="sans-serif" font-size="12" lengthAdjust="spacingAndGlyphs" textLength="211" x="34" y="233.0449">Suscribirse a nodo "/Coordinates"</text><polygon fill="#FEFECE" filter="url(#f19ajkc8n3oxgg)" points="106,605.7188,169,605.7188,181,617.7188,169,629.7188,106,629.7188,94,617.7188,106,605.7188" style="stroke: #A80036; stroke-width: 1.5;"/><text fill="#000000" font-family="sans-serif" font-size="11" lengthAdjust="spacingAndGlyphs" textLength="63" x="106" y="621.5269">ROS == ok</text><ellipse cx="137.5" cy="660.7188" fill="#FFFFFF" filter="url(#f19ajkc8n3oxgg)" rx="11" ry="11" style="stroke: #000000; stroke-width: 1.0;"/><ellipse cx="137.5" cy="660.7188" fill="#000000" rx="6" ry="6" style="stroke: #7F7F7F; stroke-width: 1.0;"/><line style="stroke: #A80036; stroke-width: 1.5;" x1="137.5" x2="137.5" y1="30" y2="50"/><polygon fill="#A80036" points="133.5,40,137.5,50,141.5,40,137.5,44" style="stroke: #A80036; stroke-width: 1.0;"/><line style="stroke: #A80036; stroke-width: 1.5;" x1="137.5" x2="137.5" y1="83.9688" y2="103.9688"/><polygon fill="#A80036" points="133.5,93.9688,137.5,103.9688,141.5,93.9688,137.5,97.9688" style="stroke: #A80036; stroke-width: 1.0;"/><line style="stroke: #A80036; stroke-width: 1.5;" x1="137.5" x2="137.5" y1="137.9375" y2="157.9375"/><polygon fill="#A80036" points="133.5,147.9375,137.5,157.9375,141.5,147.9375,137.5,151.9375" style="stroke: #A80036; stroke-width: 1.0;"/><line style="stroke: #A80036; stroke-width: 1.5;" x1="137.5" x2="137.5" y1="299.8438" y2="319.8438"/><polygon fill="#A80036" points="133.5,309.8438,137.5,319.8438,141.5,309.8438,137.5,313.8438" style="stroke: #A80036; stroke-width: 1.0;"/><line style="stroke: #A80036; stroke-width: 1.5;" x1="137.5" x2="137.5" y1="353.8125" y2="373.8125"/><polygon fill="#A80036" points="133.5,363.8125,137.5,373.8125,141.5,363.8125,137.5,367.8125" style="stroke: #A80036; stroke-width: 1.0;"/><line style="stroke: #A80036; stroke-width: 1.5;" x1="137.5" x2="137.5" y1="407.7813" y2="427.7813"/><polygon fill="#A80036" points="133.5,417.7813,137.5,427.7813,141.5,417.7813,137.5,421.7813" style="stroke: #A80036; stroke-width: 1.0;"/><line style="stroke: #A80036; stroke-width: 1.5;" x1="137.5" x2="137.5" y1="461.75" y2="481.75"/><polygon fill="#A80036" points="133.5,471.75,137.5,481.75,141.5,471.75,137.5,475.75" style="stroke: #A80036; stroke-width: 1.0;"/><line style="stroke: #A80036; stroke-width: 1.5;" x1="137.5" x2="137.5" y1="515.7188" y2="535.7188"/><polygon fill="#A80036" points="133.5,525.7188,137.5,535.7188,141.5,525.7188,137.5,529.7188" style="stroke: #A80036; stroke-width: 1.0;"/><line style="stroke: #A80036; stroke-width: 1.5;" x1="137.5" x2="137.5" y1="245.875" y2="265.875"/><polygon fill="#A80036" points="133.5,255.875,137.5,265.875,141.5,255.875,137.5,259.875" style="stroke: #A80036; stroke-width: 1.0;"/><line style="stroke: #A80036; stroke-width: 1.5;" x1="181" x2="272.5" y1="617.7188" y2="617.7188"/><polygon fill="#A80036" points="268.5,438.3047,272.5,428.3047,276.5,438.3047,272.5,434.3047" style="stroke: #A80036; stroke-width: 1.5;"/><line style="stroke: #A80036; stroke-width: 1.5;" x1="272.5" x2="272.5" y1="228.8906" y2="617.7188"/><line style="stroke: #A80036; stroke-width: 1.5;" x1="272.5" x2="255" y1="228.8906" y2="228.8906"/><polygon fill="#A80036" points="265,224.8906,255,228.8906,265,232.8906,261,228.8906" style="stroke: #A80036; stroke-width: 1.0;"/><line style="stroke: #A80036; stroke-width: 1.5;" x1="137.5" x2="137.5" y1="585.7188" y2="605.7188"/><polygon fill="#A80036" points="133.5,595.7188,137.5,605.7188,141.5,595.7188,137.5,599.7188" style="stroke: #A80036; stroke-width: 1.0;"/><line style="stroke: #A80036; stroke-width: 1.5;" x1="137.5" x2="137.5" y1="191.9063" y2="211.9063"/><polygon fill="#A80036" points="133.5,201.9063,137.5,211.9063,141.5,201.9063,137.5,205.9063" style="stroke: #A80036; stroke-width: 1.0;"/><line style="stroke: #A80036; stroke-width: 1.5;" x1="137.5" x2="137.5" y1="629.7188" y2="649.7188"/><polygon fill="#A80036" points="133.5,639.7188,137.5,649.7188,141.5,639.7188,137.5,643.7188" style="stroke: #A80036; stroke-width: 1.0;"/><!--MD5=[da5ce5a23a79502d8ff40a12f2745f49]
@startuml control
start
:Inicializar variables (Ganancias);
:Inicializar ROS;
:Inicializar motores a 1450 ms de PWM;
repeat : Suscribirse a nodo "/Coordinates";
  :Calcular errores;
  :Calcular la suma de los errores;
  :Obtener valores de ganancias Kp, Ki;
  :Calcular PI;
  :Convertir PI a valor de PWM;
  (A)
  detach
  (B)
repeat while (ROS == ok)
stop
@enduml

PlantUML version 1.2020.10(Sun May 17 04:35:57 CDT 2020)
(GPL source distribution)
Java Runtime: OpenJDK Runtime Environment
JVM: OpenJDK 64-Bit Server VM
Java Version: 11.0.8+10-post-Ubuntu-0ubuntu118.04.1
Operating System: Linux
Default Encoding: UTF-8
Language: es
Country: MX
--></g></svg>