<?xml version="1.0" encoding="UTF-8" standalone="no"?>
<svg xmlns="http://www.w3.org/2000/svg"
     xmlns:xlink="http://www.w3.org/1999/xlink"
     width="576px" height="432px" viewBox="0 0 576 432">
<title>gl2ps_renderer figure</title>
<desc>
Creator: GL2PS 1.4.0, (C) 1999-2017 C. Geuzaine
For: Octave
CreationDate: Thu Sep 17 12:12:00 2020
</desc>
<defs>
</defs>
<polygon fill="#ffffff" points="0,0 576,0 576,432 0,432"/>
<g>
<polygon fill="#ffffff" points="0,432 576,432 576,0 0,0" shape-rendering="crispEdges"/>
<clipPath id="cp00576432">
  <polygon points="0,432 576,432 576,0 0,0"/>
</clipPath>
<g clip-path="url(#cp00576432)">
<polygon fill="#ffffff" shape-rendering="crispEdges" points="74.88,384.48 483.436,384.48 74.88,32.4"/>
<polygon fill="#ffffff" shape-rendering="crispEdges" points="483.436,384.48 483.436,32.4 74.88,32.4"/>
<polyline fill="none" stroke="#262626" stroke-width="0.5" stroke-linecap="butt" stroke-linejoin="miter" stroke-opacity="0.15" stroke-dasharray="16,0" points="74.88,384.48 74.88,32.4"/>
<polyline fill="none" stroke="#262626" stroke-width="0.5" stroke-linecap="butt" stroke-linejoin="miter" stroke-opacity="0.15" stroke-dasharray="16,0" points="142.973,384.48 142.973,32.4"/>
<polyline fill="none" stroke="#262626" stroke-width="0.5" stroke-linecap="butt" stroke-linejoin="miter" stroke-opacity="0.15" stroke-dasharray="16,0" points="211.065,384.48 211.065,32.4"/>
<polyline fill="none" stroke="#262626" stroke-width="0.5" stroke-linecap="butt" stroke-linejoin="miter" stroke-opacity="0.15" stroke-dasharray="16,0" points="279.158,384.48 279.158,32.4"/>
<polyline fill="none" stroke="#262626" stroke-width="0.5" stroke-linecap="butt" stroke-linejoin="miter" stroke-opacity="0.15" stroke-dasharray="16,0" points="347.251,384.48 347.251,32.4"/>
<polyline fill="none" stroke="#262626" stroke-width="0.5" stroke-linecap="butt" stroke-linejoin="miter" stroke-opacity="0.15" stroke-dasharray="16,0" points="415.343,384.48 415.343,32.4"/>
<polyline fill="none" stroke="#262626" stroke-width="0.5" stroke-linecap="butt" stroke-linejoin="miter" stroke-opacity="0.15" stroke-dasharray="16,0" points="483.436,384.48 483.436,32.4"/>
<polyline fill="none" stroke="#262626" stroke-width="0.5" stroke-linecap="butt" stroke-linejoin="miter" points="74.88,384.48 74.88,380.394"/>
<polyline fill="none" stroke="#262626" stroke-width="0.5" stroke-linecap="butt" stroke-linejoin="miter" points="74.88,32.4 74.88,36.4865"/>
<polyline fill="none" stroke="#262626" stroke-width="0.5" stroke-linecap="butt" stroke-linejoin="miter" points="142.973,384.48 142.973,380.394"/>
<polyline fill="none" stroke="#262626" stroke-width="0.5" stroke-linecap="butt" stroke-linejoin="miter" points="142.973,32.4 142.973,36.4865"/>
<polyline fill="none" stroke="#262626" stroke-width="0.5" stroke-linecap="butt" stroke-linejoin="miter" points="211.065,384.48 211.065,380.394"/>
<polyline fill="none" stroke="#262626" stroke-width="0.5" stroke-linecap="butt" stroke-linejoin="miter" points="211.065,32.4 211.065,36.4865"/>
<polyline fill="none" stroke="#262626" stroke-width="0.5" stroke-linecap="butt" stroke-linejoin="miter" points="279.158,384.48 279.158,380.394"/>
<polyline fill="none" stroke="#262626" stroke-width="0.5" stroke-linecap="butt" stroke-linejoin="miter" points="279.158,32.4 279.158,36.4865"/>
<polyline fill="none" stroke="#262626" stroke-width="0.5" stroke-linecap="butt" stroke-linejoin="miter" points="347.251,384.48 347.251,380.394"/>
<polyline fill="none" stroke="#262626" stroke-width="0.5" stroke-linecap="butt" stroke-linejoin="miter" points="347.251,32.4 347.251,36.4865"/>
<polyline fill="none" stroke="#262626" stroke-width="0.5" stroke-linecap="butt" stroke-linejoin="miter" points="415.343,384.48 415.343,380.394"/>
<polyline fill="none" stroke="#262626" stroke-width="0.5" stroke-linecap="butt" stroke-linejoin="miter" points="415.343,32.4 415.343,36.4865"/>
<polyline fill="none" stroke="#262626" stroke-width="0.5" stroke-linecap="butt" stroke-linejoin="miter" points="483.436,384.48 483.436,380.394"/>
<polyline fill="none" stroke="#262626" stroke-width="0.5" stroke-linecap="butt" stroke-linejoin="miter" points="483.436,32.4 483.436,36.4865"/>
<text fill="#262626" x="74.88" y="389.481" font-size="10" text-anchor="middle" dy="10" font-family="Helvetica">0</text>
<text fill="#262626" x="142.973" y="389.481" font-size="10" text-anchor="middle" dy="10" font-family="Helvetica">50</text>
<text fill="#262626" x="211.065" y="389.481" font-size="10" text-anchor="middle" dy="10" font-family="Helvetica">100</text>
<text fill="#262626" x="279.158" y="389.481" font-size="10" text-anchor="middle" dy="10" font-family="Helvetica">150</text>
<text fill="#262626" x="347.251" y="389.481" font-size="10" text-anchor="middle" dy="10" font-family="Helvetica">200</text>
<text fill="#262626" x="415.343" y="389.481" font-size="10" text-anchor="middle" dy="10" font-family="Helvetica">250</text>
<text fill="#262626" x="483.436" y="389.481" font-size="10" text-anchor="middle" dy="10" font-family="Helvetica">300</text>
<polyline fill="none" stroke="#262626" stroke-width="0.5" stroke-linecap="butt" stroke-linejoin="miter" stroke-opacity="0.15" stroke-dasharray="16,0" points="74.88,384.48 483.436,384.48"/>
<polyline fill="none" stroke="#262626" stroke-width="0.5" stroke-linecap="butt" stroke-linejoin="miter" stroke-opacity="0.15" stroke-dasharray="16,0" points="74.88,314.064 483.436,314.064"/>
<polyline fill="none" stroke="#262626" stroke-width="0.5" stroke-linecap="butt" stroke-linejoin="miter" stroke-opacity="0.15" stroke-dasharray="16,0" points="74.88,243.648 483.436,243.648"/>
<polyline fill="none" stroke="#262626" stroke-width="0.5" stroke-linecap="butt" stroke-linejoin="miter" stroke-opacity="0.15" stroke-dasharray="16,0" points="74.88,173.232 483.436,173.232"/>
<polyline fill="none" stroke="#262626" stroke-width="0.5" stroke-linecap="butt" stroke-linejoin="miter" stroke-opacity="0.15" stroke-dasharray="16,0" points="74.88,102.816 483.436,102.816"/>
<polyline fill="none" stroke="#262626" stroke-width="0.5" stroke-linecap="butt" stroke-linejoin="miter" stroke-opacity="0.15" stroke-dasharray="16,0" points="74.88,32.4 483.436,32.4"/>
<polyline fill="none" stroke="#262626" stroke-width="0.5" stroke-linecap="butt" stroke-linejoin="miter" points="74.88,384.48 78.9611,384.48"/>
<polyline fill="none" stroke="#262626" stroke-width="0.5" stroke-linecap="butt" stroke-linejoin="miter" points="483.436,384.48 479.355,384.48"/>
<polyline fill="none" stroke="#262626" stroke-width="0.5" stroke-linecap="butt" stroke-linejoin="miter" points="74.88,314.064 78.9611,314.064"/>
<polyline fill="none" stroke="#262626" stroke-width="0.5" stroke-linecap="butt" stroke-linejoin="miter" points="483.436,314.064 479.355,314.064"/>
<polyline fill="none" stroke="#262626" stroke-width="0.5" stroke-linecap="butt" stroke-linejoin="miter" points="74.88,243.648 78.9611,243.648"/>
<polyline fill="none" stroke="#262626" stroke-width="0.5" stroke-linecap="butt" stroke-linejoin="miter" points="483.436,243.648 479.355,243.648"/>
<polyline fill="none" stroke="#262626" stroke-width="0.5" stroke-linecap="butt" stroke-linejoin="miter" points="74.88,173.232 78.9611,173.232"/>
<polyline fill="none" stroke="#262626" stroke-width="0.5" stroke-linecap="butt" stroke-linejoin="miter" points="483.436,173.232 479.355,173.232"/>
<polyline fill="none" stroke="#262626" stroke-width="0.5" stroke-linecap="butt" stroke-linejoin="miter" points="74.88,102.816 78.9611,102.816"/>
<polyline fill="none" stroke="#262626" stroke-width="0.5" stroke-linecap="butt" stroke-linejoin="miter" points="483.436,102.816 479.355,102.816"/>
<polyline fill="none" stroke="#262626" stroke-width="0.5" stroke-linecap="butt" stroke-linejoin="miter" points="74.88,32.4 78.9611,32.4"/>
<polyline fill="none" stroke="#262626" stroke-width="0.5" stroke-linecap="butt" stroke-linejoin="miter" points="483.436,32.4 479.355,32.4"/>
<text fill="#262626" x="69.8854" y="384.48" font-size="10" text-anchor="end" dy="5" font-family="Helvetica">-50</text>
<text fill="#262626" x="69.8854" y="314.064" font-size="10" text-anchor="end" dy="5" font-family="Helvetica">0</text>
<text fill="#262626" x="69.8854" y="243.648" font-size="10" text-anchor="end" dy="5" font-family="Helvetica">50</text>
<text fill="#262626" x="69.8854" y="173.232" font-size="10" text-anchor="end" dy="5" font-family="Helvetica">100</text>
<text fill="#262626" x="69.8854" y="102.816" font-size="10" text-anchor="end" dy="5" font-family="Helvetica">150</text>
<text fill="#262626" x="69.8854" y="32.4" font-size="10" text-anchor="end" dy="5" font-family="Helvetica">200</text>
<polyline fill="none" stroke="#262626" stroke-width="0.5" stroke-linecap="butt" stroke-linejoin="miter" stroke-dasharray="16,0" points="74.88,384.48 483.436,384.48"/>
<polyline fill="none" stroke="#262626" stroke-width="0.5" stroke-linecap="butt" stroke-linejoin="miter" stroke-dasharray="16,0" points="74.88,32.4 483.436,32.4"/>
<polyline fill="none" stroke="#262626" stroke-width="0.5" stroke-linecap="butt" stroke-linejoin="miter" stroke-dasharray="16,0" points="74.88,384.48 74.88,32.4"/>
<polyline fill="none" stroke="#262626" stroke-width="0.5" stroke-linecap="butt" stroke-linejoin="miter" stroke-dasharray="16,0" points="483.436,384.48 483.436,32.4"/>
<text fill="#262626" x="279.158" y="402.481" font-size="11" text-anchor="middle" dy="11" font-family="Helvetica">Muestras</text>
<text fill="#262626" x="47.8854" y="208.44" font-size="11" transform="rotate(-90, 47.8854, 208.44)" text-anchor="middle" dy="0" font-family="Helvetica">Error</text>
<polyline fill="none" stroke="#0071bc" stroke-width="2" stroke-linecap="butt" stroke-linejoin="miter" points="76.2419,60.5664 77.6037,60.5664 78.9656,61.9747 80.3274,60.5664 81.6893,60.5664 83.0511,60.5664 84.413,60.5664 85.7748,60.5664 87.1367,60.5664 88.4985,61.9747 89.8604,61.9747 91.2222,61.9747 92.5841,60.5664 93.9459,63.3831 95.3078,60.5664 96.6696,60.5664 98.0315,60.5664 99.3933,60.5664 100.755,60.5664 102.117,60.5664 103.479,63.3831 104.841,60.5664 106.203,60.5664 107.564,60.5664 108.926,60.5664 110.288,60.5664 111.65,60.5664 113.012,60.5664 114.374,60.5664 115.736,60.5664 117.097,60.5664 118.459,60.5664 119.821,60.5664 121.183,60.5664 122.545,60.5664 123.907,60.5664 125.269,60.5664 126.63,63.3831 127.992,60.5664 129.354,60.5664 130.716,60.5664 132.078,60.5664 133.44,60.5664 134.802,60.5664 136.163,60.5664 137.525,60.5664 138.887,61.9747 140.249,70.4246 141.611,92.9578 142.973,114.083 144.334,142.249 145.696,170.415 147.058,195.765 148.42,226.748 149.782,250.69 151.144,278.856 152.506,307.022 153.867,325.331 155.229,328.147 156.591,332.372 157.953,335.189 159.315,332.372 160.677,332.372 162.039,326.739 163.4,315.472 164.762,309.839 166.124,298.573 167.486,294.348 168.848,277.448 170.21,263.365 171.572,207.032 172.933,163.374 174.295,145.066 175.657,146.474 177.019,143.657 178.381,145.066 179.743,152.107 181.105,171.824 182.466,207.032 183.828,226.748 185.19,254.915 186.552,280.264 187.914,301.389 189.276,301.389 190.637,302.797 191.999,305.614 193.361,305.614 194.723,307.022 196.085,305.614 197.447,301.389 198.809,302.797 200.17,307.022 201.532,301.389 202.894,304.206 204.256,304.206 205.618,301.389 206.98,302.797 208.342,301.389 209.703,302.797 211.065,307.022 212.427,305.614 213.789,304.206 215.151,304.206 216.513,299.981 217.875,301.389 219.236,305.614 220.598,305.614 221.96,304.206 223.322,302.797 224.684,302.797 226.046,305.614 227.408,305.614 228.769,304.206 230.131,301.389 231.493,304.206 232.855,305.614 234.217,305.614 235.579,302.797 236.94,305.614 238.302,305.614 239.664,305.614 241.026,305.614 242.388,304.206 243.75,304.206 245.112,305.614 246.473,305.614 247.835,305.614 249.197,305.614 250.559,307.022 251.921,302.797 253.283,302.797 254.645,307.022 256.006,305.614 257.368,308.431 258.73,304.206 260.092,305.614 261.454,305.614 262.816,305.614 264.178,305.614 265.539,307.022 266.901,305.614 268.263,305.614 269.625,305.614 270.987,307.022 272.349,305.614 273.711,307.022 275.072,305.614 276.434,304.206 277.796,302.797 279.158,302.797 280.52,308.431 281.882,305.614 283.243,305.614 284.605,305.614 285.967,307.022 287.329,304.206 288.691,305.614 290.053,302.797 291.415,304.206 292.776,308.431 294.138,307.022 295.5,305.614 296.862,305.614 298.224,305.614 299.586,305.614 300.948,304.206 302.309,308.431 303.671,302.797 305.033,307.022 306.395,305.614 307.757,305.614 309.119,305.614 310.481,304.206 311.842,305.614 313.204,304.206 314.566,307.022 315.928,308.431 317.29,305.614 318.652,301.389 320.013,305.614 321.375,305.614 322.737,305.614 324.099,305.614 325.461,305.614 326.823,307.022 328.185,307.022 329.546,302.797 330.908,305.614 332.27,307.022 333.632,304.206 334.994,302.797 336.356,305.614 337.718,301.389 339.079,307.022 340.441,305.614 341.803,307.022 343.165,305.614 344.527,301.389 345.889,308.431 347.251,301.389 348.612,305.614 349.974,308.431 351.336,307.022 352.698,305.614 354.06,307.022 355.422,307.022 356.784,305.614 358.145,307.022 359.507,305.614 360.869,305.614 362.231,302.797 363.593,307.022 364.955,305.614 366.316,305.614 367.678,305.614 369.04,305.614 370.402,305.614 371.764,305.614 373.126,308.431 374.488,305.614 375.849,307.022 377.211,309.839 378.573,305.614 379.935,305.614 381.297,305.614 382.659,305.614 384.021,305.614 385.382,301.389 386.744,301.389 388.106,307.022 389.468,301.389 390.83,305.614 392.192,305.614 393.554,307.022 394.915,301.389 396.277,305.614 397.639,301.389 399.001,305.614 400.363,301.389 401.725,305.614 403.086,302.797 404.448,307.022 405.81,305.614 407.172,304.206 408.534,305.614 409.896,305.614 411.258,305.614 412.619,305.614 413.981,307.022 415.343,307.022 416.705,305.614 418.067,302.797 419.429,308.431 420.791,304.206 422.152,301.389 423.514,304.206 424.876,305.614 426.238,305.614 427.6,307.022 428.962,305.614 430.324,308.431 431.685,302.797 433.047,302.797 434.409,305.614 435.771,305.614 437.133,307.022 438.495,302.797 439.857,307.022 441.218,307.022 442.58,307.022 443.942,302.797 445.304,307.022 446.666,301.389 448.028,301.389 449.389,307.022 450.751,305.614 452.113,305.614 453.475,307.022 454.837,302.797 456.199,305.614 457.561,305.614 458.922,305.614 460.284,307.022 461.646,302.797 463.008,304.206 464.37,301.389 465.732,307.022"/>
<polyline fill="none" stroke="#d85218" stroke-width="3" stroke-linecap="butt" stroke-linejoin="miter" points="76.2419,314.064 77.6037,314.064 78.9656,314.064 80.3274,314.064 81.6893,314.064 83.0511,314.064 84.413,314.064 85.7748,314.064 87.1367,314.064 88.4985,314.064 89.8604,314.064 91.2222,314.064 92.5841,314.064 93.9459,314.064 95.3078,314.064 96.6696,314.064 98.0315,314.064 99.3933,314.064 100.755,314.064 102.117,314.064 103.479,314.064 104.841,314.064 106.203,314.064 107.564,314.064 108.926,314.064 110.288,314.064 111.65,314.064 113.012,314.064 114.374,314.064 115.736,314.064 117.097,314.064 118.459,314.064 119.821,314.064 121.183,314.064 122.545,314.064 123.907,314.064 125.269,314.064 126.63,314.064 127.992,314.064 129.354,314.064 130.716,314.064 132.078,314.064 133.44,314.064 134.802,314.064 136.163,314.064 137.525,314.064 138.887,314.064 140.249,314.064 141.611,314.064 142.973,314.064 144.334,314.064 145.696,314.064 147.058,314.064 148.42,314.064 149.782,314.064 151.144,314.064 152.506,314.064 153.867,314.064 155.229,314.064 156.591,314.064 157.953,314.064 159.315,314.064 160.677,314.064 162.039,314.064 163.4,314.064 164.762,314.064 166.124,314.064 167.486,314.064 168.848,314.064 170.21,314.064 171.572,314.064 172.933,314.064 174.295,314.064 175.657,314.064 177.019,314.064 178.381,314.064 179.743,314.064 181.105,314.064 182.466,314.064 183.828,314.064 185.19,314.064 186.552,314.064 187.914,314.064 189.276,314.064 190.637,314.064 191.999,314.064 193.361,314.064 194.723,314.064 196.085,314.064 197.447,314.064 198.809,314.064 200.17,314.064 201.532,314.064 202.894,314.064 204.256,314.064 205.618,314.064 206.98,314.064 208.342,314.064 209.703,314.064 211.065,314.064 212.427,314.064 213.789,314.064 215.151,314.064 216.513,314.064 217.875,314.064 219.236,314.064 220.598,314.064 221.96,314.064 223.322,314.064 224.684,314.064 226.046,314.064 227.408,314.064 228.769,314.064 230.131,314.064 231.493,314.064 232.855,314.064 234.217,314.064 235.579,314.064 236.94,314.064 238.302,314.064 239.664,314.064 241.026,314.064 242.388,314.064 243.75,314.064 245.112,314.064 246.473,314.064 247.835,314.064 249.197,314.064 250.559,314.064 251.921,314.064 253.283,314.064 254.645,314.064 256.006,314.064 257.368,314.064 258.73,314.064 260.092,314.064 261.454,314.064 262.816,314.064 264.178,314.064 265.539,314.064 266.901,314.064 268.263,314.064 269.625,314.064 270.987,314.064 272.349,314.064 273.711,314.064 275.072,314.064 276.434,314.064 277.796,314.064 279.158,314.064 280.52,314.064 281.882,314.064 283.243,314.064 284.605,314.064 285.967,314.064 287.329,314.064 288.691,314.064 290.053,314.064 291.415,314.064 292.776,314.064 294.138,314.064 295.5,314.064 296.862,314.064 298.224,314.064 299.586,314.064 300.948,314.064 302.309,314.064 303.671,314.064 305.033,314.064 306.395,314.064 307.757,314.064 309.119,314.064 310.481,314.064 311.842,314.064 313.204,314.064 314.566,314.064 315.928,314.064 317.29,314.064 318.652,314.064 320.013,314.064 321.375,314.064 322.737,314.064 324.099,314.064 325.461,314.064 326.823,314.064 328.185,314.064 329.546,314.064 330.908,314.064 332.27,314.064 333.632,314.064 334.994,314.064 336.356,314.064 337.718,314.064 339.079,314.064 340.441,314.064 341.803,314.064 343.165,314.064 344.527,314.064 345.889,314.064 347.251,314.064 348.612,314.064 349.974,314.064 351.336,314.064 352.698,314.064 354.06,314.064 355.422,314.064 356.784,314.064 358.145,314.064 359.507,314.064 360.869,314.064 362.231,314.064 363.593,314.064 364.955,314.064 366.316,314.064 367.678,314.064 369.04,314.064 370.402,314.064 371.764,314.064 373.126,314.064 374.488,314.064 375.849,314.064 377.211,314.064 378.573,314.064 379.935,314.064 381.297,314.064 382.659,314.064 384.021,314.064 385.382,314.064 386.744,314.064 388.106,314.064 389.468,314.064 390.83,314.064 392.192,314.064 393.554,314.064 394.915,314.064 396.277,314.064 397.639,314.064 399.001,314.064 400.363,314.064 401.725,314.064 403.086,314.064 404.448,314.064 405.81,314.064 407.172,314.064 408.534,314.064 409.896,314.064 411.258,314.064 412.619,314.064 413.981,314.064 415.343,314.064 416.705,314.064 418.067,314.064 419.429,314.064 420.791,314.064 422.152,314.064 423.514,314.064 424.876,314.064 426.238,314.064 427.6,314.064 428.962,314.064 430.324,314.064 431.685,314.064 433.047,314.064 434.409,314.064 435.771,314.064 437.133,314.064 438.495,314.064 439.857,314.064 441.218,314.064 442.58,314.064 443.942,314.064 445.304,314.064 446.666,314.064 448.028,314.064 449.389,314.064 450.751,314.064 452.113,314.064 453.475,314.064 454.837,314.064 456.199,314.064 457.561,314.064 458.922,314.064 460.284,314.064 461.646,314.064 463.008,314.064 464.37,314.064 465.732,314.064"/>
<text fill="#000000" x="279.158" y="22.4" font-size="11" text-anchor="middle" dy="0" font-family="Helvetica" font-weight="bold">Control en Pitch</text>
</g>
<clipPath id="cp00576432">
  <polygon points="0,432 576,432 576,0 0,0"/>
</clipPath>
<g clip-path="url(#cp00576432)">
<polygon fill="#ffffff" shape-rendering="crispEdges" points="488.92,64.6275 573.258,64.6275 488.92,32.4"/>
<polygon fill="#ffffff" shape-rendering="crispEdges" points="573.258,64.6275 573.258,32.4 488.92,32.4"/>
<polyline fill="none" stroke="#262626" stroke-width="0.5" stroke-linecap="butt" stroke-linejoin="miter" stroke-dasharray="16,0" points="488.92,64.6275 573.258,64.6275"/>
<polyline fill="none" stroke="#262626" stroke-width="0.5" stroke-linecap="butt" stroke-linejoin="miter" stroke-dasharray="16,0" points="488.92,32.4 573.258,32.4"/>
<polyline fill="none" stroke="#262626" stroke-width="0.5" stroke-linecap="butt" stroke-linejoin="miter" stroke-dasharray="16,0" points="488.92,64.6275 488.92,32.4"/>
<polyline fill="none" stroke="#262626" stroke-width="0.5" stroke-linecap="butt" stroke-linejoin="miter" stroke-dasharray="16,0" points="573.258,64.6275 573.258,32.4"/>
<text fill="#000000" x="514.972" y="40.4568" font-size="10" text-anchor="start" dy="5" font-family="Helvetica">Control P</text>
<text fill="#000000" x="514.972" y="56.5706" font-size="10" text-anchor="start" dy="5" font-family="Helvetica">Referencia</text>
<polyline fill="none" stroke="#0071bc" stroke-width="2" stroke-linecap="butt" stroke-linejoin="miter" points="491.663,40.4568 512.23,40.4568"/>
<polyline fill="none" stroke="#d85218" stroke-width="3" stroke-linecap="butt" stroke-linejoin="miter" points="491.663,56.5706 512.23,56.5706"/>
</g>
</g>
</svg>
