<?xml version="1.0" encoding="UTF-8" standalone="no"?>
<svg xmlns="http://www.w3.org/2000/svg"
     xmlns:xlink="http://www.w3.org/1999/xlink"
     width="576px" height="432px" viewBox="0 0 576 432">
<title>gl2ps_renderer figure</title>
<desc>
Creator: GL2PS 1.4.0, (C) 1999-2017 C. Geuzaine
For: Octave
CreationDate: Thu Sep 17 11:57:51 2020
</desc>
<defs>
</defs>
<polygon fill="#ffffff" points="0,0 576,0 576,432 0,432"/>
<g>
<polygon fill="#ffffff" points="0,432 576,432 576,0 0,0" shape-rendering="crispEdges"/>
<clipPath id="cp00576432">
  <polygon points="0,432 576,432 576,0 0,0"/>
</clipPath>
<g clip-path="url(#cp00576432)">
<polygon fill="#ffffff" shape-rendering="crispEdges" points="74.88,384.48 483.436,384.48 74.88,32.4"/>
<polygon fill="#ffffff" shape-rendering="crispEdges" points="483.436,384.48 483.436,32.4 74.88,32.4"/>
<polyline fill="none" stroke="#262626" stroke-width="0.5" stroke-linecap="butt" stroke-linejoin="miter" stroke-opacity="0.15" stroke-dasharray="16,0" points="74.88,384.48 74.88,32.4"/>
<polyline fill="none" stroke="#262626" stroke-width="0.5" stroke-linecap="butt" stroke-linejoin="miter" stroke-opacity="0.15" stroke-dasharray="16,0" points="133.245,384.48 133.245,32.4"/>
<polyline fill="none" stroke="#262626" stroke-width="0.5" stroke-linecap="butt" stroke-linejoin="miter" stroke-opacity="0.15" stroke-dasharray="16,0" points="191.61,384.48 191.61,32.4"/>
<polyline fill="none" stroke="#262626" stroke-width="0.5" stroke-linecap="butt" stroke-linejoin="miter" stroke-opacity="0.15" stroke-dasharray="16,0" points="249.975,384.48 249.975,32.4"/>
<polyline fill="none" stroke="#262626" stroke-width="0.5" stroke-linecap="butt" stroke-linejoin="miter" stroke-opacity="0.15" stroke-dasharray="16,0" points="308.34,384.48 308.34,32.4"/>
<polyline fill="none" stroke="#262626" stroke-width="0.5" stroke-linecap="butt" stroke-linejoin="miter" stroke-opacity="0.15" stroke-dasharray="16,0" points="366.706,384.48 366.706,32.4"/>
<polyline fill="none" stroke="#262626" stroke-width="0.5" stroke-linecap="butt" stroke-linejoin="miter" stroke-opacity="0.15" stroke-dasharray="16,0" points="425.071,384.48 425.071,32.4"/>
<polyline fill="none" stroke="#262626" stroke-width="0.5" stroke-linecap="butt" stroke-linejoin="miter" stroke-opacity="0.15" stroke-dasharray="16,0" points="483.436,384.48 483.436,32.4"/>
<polyline fill="none" stroke="#262626" stroke-width="0.5" stroke-linecap="butt" stroke-linejoin="miter" points="74.88,384.48 74.88,380.394"/>
<polyline fill="none" stroke="#262626" stroke-width="0.5" stroke-linecap="butt" stroke-linejoin="miter" points="74.88,32.4 74.88,36.4865"/>
<polyline fill="none" stroke="#262626" stroke-width="0.5" stroke-linecap="butt" stroke-linejoin="miter" points="133.245,384.48 133.245,380.394"/>
<polyline fill="none" stroke="#262626" stroke-width="0.5" stroke-linecap="butt" stroke-linejoin="miter" points="133.245,32.4 133.245,36.4865"/>
<polyline fill="none" stroke="#262626" stroke-width="0.5" stroke-linecap="butt" stroke-linejoin="miter" points="191.61,384.48 191.61,380.394"/>
<polyline fill="none" stroke="#262626" stroke-width="0.5" stroke-linecap="butt" stroke-linejoin="miter" points="191.61,32.4 191.61,36.4865"/>
<polyline fill="none" stroke="#262626" stroke-width="0.5" stroke-linecap="butt" stroke-linejoin="miter" points="249.975,384.48 249.975,380.394"/>
<polyline fill="none" stroke="#262626" stroke-width="0.5" stroke-linecap="butt" stroke-linejoin="miter" points="249.975,32.4 249.975,36.4865"/>
<polyline fill="none" stroke="#262626" stroke-width="0.5" stroke-linecap="butt" stroke-linejoin="miter" points="308.34,384.48 308.34,380.394"/>
<polyline fill="none" stroke="#262626" stroke-width="0.5" stroke-linecap="butt" stroke-linejoin="miter" points="308.34,32.4 308.34,36.4865"/>
<polyline fill="none" stroke="#262626" stroke-width="0.5" stroke-linecap="butt" stroke-linejoin="miter" points="366.706,384.48 366.706,380.394"/>
<polyline fill="none" stroke="#262626" stroke-width="0.5" stroke-linecap="butt" stroke-linejoin="miter" points="366.706,32.4 366.706,36.4865"/>
<polyline fill="none" stroke="#262626" stroke-width="0.5" stroke-linecap="butt" stroke-linejoin="miter" points="425.071,384.48 425.071,380.394"/>
<polyline fill="none" stroke="#262626" stroke-width="0.5" stroke-linecap="butt" stroke-linejoin="miter" points="425.071,32.4 425.071,36.4865"/>
<polyline fill="none" stroke="#262626" stroke-width="0.5" stroke-linecap="butt" stroke-linejoin="miter" points="483.436,384.48 483.436,380.394"/>
<polyline fill="none" stroke="#262626" stroke-width="0.5" stroke-linecap="butt" stroke-linejoin="miter" points="483.436,32.4 483.436,36.4865"/>
<text fill="#262626" x="74.88" y="389.481" font-size="10" text-anchor="middle" dy="10" font-family="Helvetica">0</text>
<text fill="#262626" x="133.245" y="389.481" font-size="10" text-anchor="middle" dy="10" font-family="Helvetica">50</text>
<text fill="#262626" x="191.61" y="389.481" font-size="10" text-anchor="middle" dy="10" font-family="Helvetica">100</text>
<text fill="#262626" x="249.975" y="389.481" font-size="10" text-anchor="middle" dy="10" font-family="Helvetica">150</text>
<text fill="#262626" x="308.34" y="389.481" font-size="10" text-anchor="middle" dy="10" font-family="Helvetica">200</text>
<text fill="#262626" x="366.706" y="389.481" font-size="10" text-anchor="middle" dy="10" font-family="Helvetica">250</text>
<text fill="#262626" x="425.071" y="389.481" font-size="10" text-anchor="middle" dy="10" font-family="Helvetica">300</text>
<text fill="#262626" x="483.436" y="389.481" font-size="10" text-anchor="middle" dy="10" font-family="Helvetica">350</text>
<polyline fill="none" stroke="#262626" stroke-width="0.5" stroke-linecap="butt" stroke-linejoin="miter" stroke-opacity="0.15" stroke-dasharray="16,0" points="74.88,384.48 483.436,384.48"/>
<polyline fill="none" stroke="#262626" stroke-width="0.5" stroke-linecap="butt" stroke-linejoin="miter" stroke-opacity="0.15" stroke-dasharray="16,0" points="74.88,296.46 483.436,296.46"/>
<polyline fill="none" stroke="#262626" stroke-width="0.5" stroke-linecap="butt" stroke-linejoin="miter" stroke-opacity="0.15" stroke-dasharray="16,0" points="74.88,208.44 483.436,208.44"/>
<polyline fill="none" stroke="#262626" stroke-width="0.5" stroke-linecap="butt" stroke-linejoin="miter" stroke-opacity="0.15" stroke-dasharray="16,0" points="74.88,120.42 483.436,120.42"/>
<polyline fill="none" stroke="#262626" stroke-width="0.5" stroke-linecap="butt" stroke-linejoin="miter" stroke-opacity="0.15" stroke-dasharray="16,0" points="74.88,32.4 483.436,32.4"/>
<polyline fill="none" stroke="#262626" stroke-width="0.5" stroke-linecap="butt" stroke-linejoin="miter" points="74.88,384.48 78.9611,384.48"/>
<polyline fill="none" stroke="#262626" stroke-width="0.5" stroke-linecap="butt" stroke-linejoin="miter" points="483.436,384.48 479.355,384.48"/>
<polyline fill="none" stroke="#262626" stroke-width="0.5" stroke-linecap="butt" stroke-linejoin="miter" points="74.88,296.46 78.9611,296.46"/>
<polyline fill="none" stroke="#262626" stroke-width="0.5" stroke-linecap="butt" stroke-linejoin="miter" points="483.436,296.46 479.355,296.46"/>
<polyline fill="none" stroke="#262626" stroke-width="0.5" stroke-linecap="butt" stroke-linejoin="miter" points="74.88,208.44 78.9611,208.44"/>
<polyline fill="none" stroke="#262626" stroke-width="0.5" stroke-linecap="butt" stroke-linejoin="miter" points="483.436,208.44 479.355,208.44"/>
<polyline fill="none" stroke="#262626" stroke-width="0.5" stroke-linecap="butt" stroke-linejoin="miter" points="74.88,120.42 78.9611,120.42"/>
<polyline fill="none" stroke="#262626" stroke-width="0.5" stroke-linecap="butt" stroke-linejoin="miter" points="483.436,120.42 479.355,120.42"/>
<polyline fill="none" stroke="#262626" stroke-width="0.5" stroke-linecap="butt" stroke-linejoin="miter" points="74.88,32.4 78.9611,32.4"/>
<polyline fill="none" stroke="#262626" stroke-width="0.5" stroke-linecap="butt" stroke-linejoin="miter" points="483.436,32.4 479.355,32.4"/>
<text fill="#262626" x="69.8854" y="384.48" font-size="10" text-anchor="end" dy="5" font-family="Helvetica">0</text>
<text fill="#262626" x="69.8854" y="296.46" font-size="10" text-anchor="end" dy="5" font-family="Helvetica">50</text>
<text fill="#262626" x="69.8854" y="208.44" font-size="10" text-anchor="end" dy="5" font-family="Helvetica">100</text>
<text fill="#262626" x="69.8854" y="120.42" font-size="10" text-anchor="end" dy="5" font-family="Helvetica">150</text>
<text fill="#262626" x="69.8854" y="32.4" font-size="10" text-anchor="end" dy="5" font-family="Helvetica">200</text>
<polyline fill="none" stroke="#262626" stroke-width="0.5" stroke-linecap="butt" stroke-linejoin="miter" stroke-dasharray="16,0" points="74.88,384.48 483.436,384.48"/>
<polyline fill="none" stroke="#262626" stroke-width="0.5" stroke-linecap="butt" stroke-linejoin="miter" stroke-dasharray="16,0" points="74.88,32.4 483.436,32.4"/>
<polyline fill="none" stroke="#262626" stroke-width="0.5" stroke-linecap="butt" stroke-linejoin="miter" stroke-dasharray="16,0" points="74.88,384.48 74.88,32.4"/>
<polyline fill="none" stroke="#262626" stroke-width="0.5" stroke-linecap="butt" stroke-linejoin="miter" stroke-dasharray="16,0" points="483.436,384.48 483.436,32.4"/>
<text fill="#262626" x="279.158" y="402.481" font-size="11" text-anchor="middle" dy="11" font-family="Helvetica">Muestras</text>
<text fill="#262626" x="47.8854" y="208.44" font-size="11" transform="rotate(-90, 47.8854, 208.44)" text-anchor="middle" dy="0" font-family="Helvetica">Error</text>
<polyline fill="none" stroke="#0071bc" stroke-width="2" stroke-linecap="butt" stroke-linejoin="miter" points="76.0473,351.032 77.2146,314.064 78.3819,277.096 79.5492,192.596 80.7165,150.347 81.8838,136.264 83.0511,134.503 84.2184,134.503 85.3857,134.503 86.553,139.784 87.7203,166.19 88.8876,197.878 90.0549,234.846 91.2222,261.252 92.3895,292.939 93.5568,324.626 94.7241,380.959 95.8914,368.636 97.0587,356.314 98.226,345.751 99.3933,331.668 100.561,254.21 101.728,206.68 102.895,189.076 104.063,185.555 105.23,180.274 106.397,180.274 107.564,180.274 108.732,194.357 109.899,220.763 111.066,255.971 112.234,284.137 113.401,314.064 114.568,345.751 115.736,361.595 116.903,345.751 118.07,322.866 119.237,257.731 120.405,203.159 121.572,189.076 122.739,182.034 123.907,180.274 125.074,180.274 126.241,178.513 127.409,185.555 128.576,210.2 129.743,247.169 130.911,273.575 132.078,305.262 133.245,338.71 134.412,347.512 135.58,349.272 136.747,356.314 137.914,351.032 139.082,351.032 140.249,351.032 141.416,352.793 142.584,351.032 143.751,351.032 144.918,354.553 146.085,352.793 147.253,351.032 148.42,349.272 149.587,349.272 150.755,349.272 151.922,354.553 153.089,351.032 154.257,358.074 155.424,351.032 156.591,358.074 157.758,354.553 158.926,356.314 160.093,349.272 161.26,347.512 162.428,349.272 163.595,349.272 164.762,352.793 165.93,354.553 167.097,354.553 168.264,351.032 169.431,354.553 170.599,351.032 171.766,354.553 172.933,349.272 174.101,351.032 175.268,352.793 176.435,349.272 177.603,349.272 178.77,349.272 179.937,354.553 181.104,349.272 182.272,351.032 183.439,352.793 184.606,349.272 185.774,349.272 186.941,351.032 188.108,349.272 189.276,349.272 190.443,354.553 191.61,349.272 192.778,352.793 193.945,349.272 195.112,351.032 196.279,356.314 197.447,349.272 198.614,354.553 199.781,349.272 200.949,349.272 202.116,349.272 203.283,349.272 204.451,351.032 205.618,356.314 206.785,351.032 207.952,349.272 209.12,349.272 210.287,349.272 211.454,356.314 212.622,354.553 213.789,349.272 214.956,351.032 216.124,351.032 217.291,349.272 218.458,354.553 219.625,351.032 220.793,354.553 221.96,352.793 223.127,354.553 224.295,349.272 225.462,351.032 226.629,351.032 227.797,351.032 228.964,349.272 230.131,351.032 231.298,351.032 232.466,354.553 233.633,349.272 234.8,351.032 235.968,354.553 237.135,354.553 238.302,351.032 239.47,351.032 240.637,349.272 241.804,349.272 242.971,354.553 244.139,354.553 245.306,354.553 246.473,349.272 247.641,351.032 248.808,356.314 249.975,354.553 251.143,351.032 252.31,354.553 253.477,354.553 254.645,356.314 255.812,349.272 256.979,354.553 258.146,354.553 259.314,354.553 260.481,356.314 261.648,352.793 262.816,349.272 263.983,354.553 265.15,351.032 266.318,349.272 267.485,354.553 268.652,352.793 269.819,354.553 270.987,349.272 272.154,349.272 273.321,349.272 274.489,352.793 275.656,356.314 276.823,354.553 277.991,351.032 279.158,351.032 280.325,352.793 281.492,349.272 282.66,352.793 283.827,351.032 284.994,349.272 286.162,352.793 287.329,349.272 288.496,351.032 289.664,351.032 290.831,349.272 291.998,354.553 293.166,356.314 294.333,349.272 295.5,352.793 296.667,349.272 297.835,349.272 299.002,352.793 300.169,352.793 301.337,351.032 302.504,356.314 303.671,351.032 304.839,351.032 306.006,351.032 307.173,352.793 308.34,351.032 309.508,354.553 310.675,356.314 311.842,354.553 313.01,351.032 314.177,354.553 315.344,354.553 316.512,352.793 317.679,349.272 318.846,351.032 320.013,352.793 321.181,356.314 322.348,349.272 323.515,354.553 324.683,354.553 325.85,349.272 327.017,352.793 328.185,349.272 329.352,349.272 330.519,349.272 331.686,351.032 332.854,354.553 334.021,351.032 335.188,351.032 336.356,352.793 337.523,354.553 338.69,354.553 339.858,351.032 341.025,349.272 342.192,351.032 343.359,351.032 344.527,354.553 345.694,349.272 346.861,351.032 348.029,351.032 349.196,351.032 350.363,351.032 351.531,349.272 352.698,349.272 353.865,349.272 355.033,351.032 356.2,351.032 357.367,349.272 358.534,352.793 359.702,354.553 360.869,354.553 362.036,351.032 363.204,349.272 364.371,351.032 365.538,352.793 366.706,351.032 367.873,349.272 369.04,354.553 370.207,352.793 371.375,351.032 372.542,351.032 373.709,351.032 374.877,349.272 376.044,351.032 377.211,352.793 378.379,349.272 379.546,349.272 380.713,356.314 381.88,352.793 383.048,356.314 384.215,352.793 385.382,354.553 386.55,358.074 387.717,349.272 388.884,352.793 390.052,354.553 391.219,354.553 392.386,354.553 393.553,351.032 394.721,351.032 395.888,349.272 397.055,352.793 398.223,349.272 399.39,354.553 400.557,352.793 401.725,351.032 402.892,352.793 404.059,354.553 405.227,351.032 406.394,354.553 407.561,352.793 408.728,351.032 409.896,351.032 411.063,352.793 412.23,352.793 413.398,352.793 414.565,349.272 415.732,349.272 416.9,351.032 418.067,349.272 419.234,349.272 420.401,352.793 421.569,351.032 422.736,351.032 423.903,351.032 425.071,349.272 426.238,351.032 427.405,351.032 428.573,354.553 429.74,351.032 430.907,349.272 432.074,349.272 433.242,352.793 434.409,352.793 435.576,349.272"/>
<polyline fill="none" stroke="#d85218" stroke-width="3" stroke-linecap="butt" stroke-linejoin="miter" points="76.0473,384.48 77.2146,384.48 78.3819,384.48 79.5492,384.48 80.7165,384.48 81.8838,384.48 83.0511,384.48 84.2184,384.48 85.3857,384.48 86.553,384.48 87.7203,384.48 88.8876,384.48 90.0549,384.48 91.2222,384.48 92.3895,384.48 93.5568,384.48 94.7241,384.48 95.8914,384.48 97.0587,384.48 98.226,384.48 99.3933,384.48 100.561,384.48 101.728,384.48 102.895,384.48 104.063,384.48 105.23,384.48 106.397,384.48 107.564,384.48 108.732,384.48 109.899,384.48 111.066,384.48 112.234,384.48 113.401,384.48 114.568,384.48 115.736,384.48 116.903,384.48 118.07,384.48 119.237,384.48 120.405,384.48 121.572,384.48 122.739,384.48 123.907,384.48 125.074,384.48 126.241,384.48 127.409,384.48 128.576,384.48 129.743,384.48 130.911,384.48 132.078,384.48 133.245,384.48 134.412,384.48 135.58,384.48 136.747,384.48 137.914,384.48 139.082,384.48 140.249,384.48 141.416,384.48 142.584,384.48 143.751,384.48 144.918,384.48 146.085,384.48 147.253,384.48 148.42,384.48 149.587,384.48 150.755,384.48 151.922,384.48 153.089,384.48 154.257,384.48 155.424,384.48 156.591,384.48 157.758,384.48 158.926,384.48 160.093,384.48 161.26,384.48 162.428,384.48 163.595,384.48 164.762,384.48 165.93,384.48 167.097,384.48 168.264,384.48 169.431,384.48 170.599,384.48 171.766,384.48 172.933,384.48 174.101,384.48 175.268,384.48 176.435,384.48 177.603,384.48 178.77,384.48 179.937,384.48 181.104,384.48 182.272,384.48 183.439,384.48 184.606,384.48 185.774,384.48 186.941,384.48 188.108,384.48 189.276,384.48 190.443,384.48 191.61,384.48 192.778,384.48 193.945,384.48 195.112,384.48 196.279,384.48 197.447,384.48 198.614,384.48 199.781,384.48 200.949,384.48 202.116,384.48 203.283,384.48 204.451,384.48 205.618,384.48 206.785,384.48 207.952,384.48 209.12,384.48 210.287,384.48 211.454,384.48 212.622,384.48 213.789,384.48 214.956,384.48 216.124,384.48 217.291,384.48 218.458,384.48 219.625,384.48 220.793,384.48 221.96,384.48 223.127,384.48 224.295,384.48 225.462,384.48 226.629,384.48 227.797,384.48 228.964,384.48 230.131,384.48 231.298,384.48 232.466,384.48 233.633,384.48 234.8,384.48 235.968,384.48 237.135,384.48 238.302,384.48 239.47,384.48 240.637,384.48 241.804,384.48 242.971,384.48 244.139,384.48 245.306,384.48 246.473,384.48 247.641,384.48 248.808,384.48 249.975,384.48 251.143,384.48 252.31,384.48 253.477,384.48 254.645,384.48 255.812,384.48 256.979,384.48 258.146,384.48 259.314,384.48 260.481,384.48 261.648,384.48 262.816,384.48 263.983,384.48 265.15,384.48 266.318,384.48 267.485,384.48 268.652,384.48 269.819,384.48 270.987,384.48 272.154,384.48 273.321,384.48 274.489,384.48 275.656,384.48 276.823,384.48 277.991,384.48 279.158,384.48 280.325,384.48 281.492,384.48 282.66,384.48 283.827,384.48 284.994,384.48 286.162,384.48 287.329,384.48 288.496,384.48 289.664,384.48 290.831,384.48 291.998,384.48 293.166,384.48 294.333,384.48 295.5,384.48 296.667,384.48 297.835,384.48 299.002,384.48 300.169,384.48 301.337,384.48 302.504,384.48 303.671,384.48 304.839,384.48 306.006,384.48 307.173,384.48 308.34,384.48 309.508,384.48 310.675,384.48 311.842,384.48 313.01,384.48 314.177,384.48 315.344,384.48 316.512,384.48 317.679,384.48 318.846,384.48 320.013,384.48 321.181,384.48 322.348,384.48 323.515,384.48 324.683,384.48 325.85,384.48 327.017,384.48 328.185,384.48 329.352,384.48 330.519,384.48 331.686,384.48 332.854,384.48 334.021,384.48 335.188,384.48 336.356,384.48 337.523,384.48 338.69,384.48 339.858,384.48 341.025,384.48 342.192,384.48 343.359,384.48 344.527,384.48 345.694,384.48 346.861,384.48 348.029,384.48 349.196,384.48 350.363,384.48 351.531,384.48 352.698,384.48 353.865,384.48 355.033,384.48 356.2,384.48 357.367,384.48 358.534,384.48 359.702,384.48 360.869,384.48 362.036,384.48 363.204,384.48 364.371,384.48 365.538,384.48 366.706,384.48 367.873,384.48 369.04,384.48 370.207,384.48 371.375,384.48 372.542,384.48 373.709,384.48 374.877,384.48 376.044,384.48 377.211,384.48 378.379,384.48 379.546,384.48 380.713,384.48 381.88,384.48 383.048,384.48 384.215,384.48 385.382,384.48 386.55,384.48 387.717,384.48 388.884,384.48 390.052,384.48 391.219,384.48 392.386,384.48 393.553,384.48 394.721,384.48 395.888,384.48 397.055,384.48 398.223,384.48 399.39,384.48 400.557,384.48 401.725,384.48 402.892,384.48 404.059,384.48 405.227,384.48 406.394,384.48 407.561,384.48 408.728,384.48 409.896,384.48 411.063,384.48 412.23,384.48 413.398,384.48 414.565,384.48 415.732,384.48 416.9,384.48 418.067,384.48 419.234,384.48 420.401,384.48 421.569,384.48 422.736,384.48 423.903,384.48 425.071,384.48 426.238,384.48 427.405,384.48 428.573,384.48 429.74,384.48 430.907,384.48 432.074,384.48 433.242,384.48 434.409,384.48 435.576,384.48"/>
<text fill="#000000" x="279.158" y="22.4" font-size="11" text-anchor="middle" dy="0" font-family="Helvetica" font-weight="bold">Control en Pitch</text>
</g>
<clipPath id="cp00576432">
  <polygon points="0,432 576,432 576,0 0,0"/>
</clipPath>
<g clip-path="url(#cp00576432)">
<polygon fill="#ffffff" shape-rendering="crispEdges" points="488.92,64.6275 573.258,64.6275 488.92,32.4"/>
<polygon fill="#ffffff" shape-rendering="crispEdges" points="573.258,64.6275 573.258,32.4 488.92,32.4"/>
<polyline fill="none" stroke="#262626" stroke-width="0.5" stroke-linecap="butt" stroke-linejoin="miter" stroke-dasharray="16,0" points="488.92,64.6275 573.258,64.6275"/>
<polyline fill="none" stroke="#262626" stroke-width="0.5" stroke-linecap="butt" stroke-linejoin="miter" stroke-dasharray="16,0" points="488.92,32.4 573.258,32.4"/>
<polyline fill="none" stroke="#262626" stroke-width="0.5" stroke-linecap="butt" stroke-linejoin="miter" stroke-dasharray="16,0" points="488.92,64.6275 488.92,32.4"/>
<polyline fill="none" stroke="#262626" stroke-width="0.5" stroke-linecap="butt" stroke-linejoin="miter" stroke-dasharray="16,0" points="573.258,64.6275 573.258,32.4"/>
<text fill="#000000" x="514.972" y="40.4568" font-size="10" text-anchor="start" dy="5" font-family="Helvetica">Control P</text>
<text fill="#000000" x="514.972" y="56.5706" font-size="10" text-anchor="start" dy="5" font-family="Helvetica">Referencia</text>
<polyline fill="none" stroke="#0071bc" stroke-width="2" stroke-linecap="butt" stroke-linejoin="miter" points="491.663,40.4568 512.23,40.4568"/>
<polyline fill="none" stroke="#d85218" stroke-width="3" stroke-linecap="butt" stroke-linejoin="miter" points="491.663,56.5706 512.23,56.5706"/>
</g>
</g>
</svg>
