<?xml version="1.0" encoding="UTF-8" standalone="no"?><svg xmlns="http://www.w3.org/2000/svg" xmlns:xlink="http://www.w3.org/1999/xlink" contentScriptType="application/ecmascript" contentStyleType="text/css" height="296px" preserveAspectRatio="none" style="width:213px;height:296px;" version="1.1" viewBox="0 0 213 296" width="213px" zoomAndPan="magnify"><defs><filter height="300%" id="fmtkk0p5vca1h" width="300%" x="-1" y="-1"><feGaussianBlur result="blurOut" stdDeviation="2.0"/><feColorMatrix in="blurOut" result="blurOut2" type="matrix" values="0 0 0 0 0 0 0 0 0 0 0 0 0 0 0 0 0 0 .4 0"/><feOffset dx="4.0" dy="4.0" in="blurOut2" result="blurOut3"/><feBlend in="SourceGraphic" in2="blurOut3" mode="normal"/></filter></defs><g><ellipse cx="106" cy="20" fill="#FEFECE" filter="url(#fmtkk0p5vca1h)" rx="10" ry="10" style="stroke: #A80036; stroke-width: 1.5;"/><path d="M106.1094,16.1719 L104.5,20.5156 L107.7188,20.5156 L106.1094,16.1719 Z M105.4375,15 L106.7813,15 L110.1094,23.75 L108.875,23.75 L108.0781,21.5 L104.1406,21.5 L103.3438,23.75 L102.0938,23.75 L105.4375,15 Z "/><rect fill="#FEFECE" filter="url(#fmtkk0p5vca1h)" height="33.9688" rx="12.5" ry="12.5" style="stroke: #A80036; stroke-width: 1.5;" width="192" x="10" y="50"/><text fill="#000000" font-family="sans-serif" font-size="12" lengthAdjust="spacingAndGlyphs" textLength="172" x="20" y="71.1387">Sumar el PI al valor de PWM</text><rect fill="#FEFECE" filter="url(#fmtkk0p5vca1h)" height="33.9688" rx="12.5" ry="12.5" style="stroke: #A80036; stroke-width: 1.5;" width="153" x="29.5" y="103.9688"/><text fill="#000000" font-family="sans-serif" font-size="12" lengthAdjust="spacingAndGlyphs" textLength="133" x="39.5" y="125.1074">Establecer los limites</text><rect fill="#FEFECE" filter="url(#fmtkk0p5vca1h)" height="33.9688" rx="12.5" ry="12.5" style="stroke: #A80036; stroke-width: 1.5;" width="159" x="26.5" y="157.9375"/><text fill="#000000" font-family="sans-serif" font-size="12" lengthAdjust="spacingAndGlyphs" textLength="139" x="36.5" y="179.0762">Enviar PWM a motores</text><rect fill="#FEFECE" filter="url(#fmtkk0p5vca1h)" height="33.9688" rx="12.5" ry="12.5" style="stroke: #A80036; stroke-width: 1.5;" width="169" x="21.5" y="211.9063"/><text fill="#000000" font-family="sans-serif" font-size="12" lengthAdjust="spacingAndGlyphs" textLength="149" x="31.5" y="233.0449">Publicar errores en ROS</text><ellipse cx="106" cy="275.875" fill="#FEFECE" filter="url(#fmtkk0p5vca1h)" rx="10" ry="10" style="stroke: #A80036; stroke-width: 1.5;"/><path d="M104.8594,276.2031 L104.8594,279.4063 L106.7656,279.4063 Q107.7188,279.4063 108.1719,279.0156 Q108.6406,278.6094 108.6406,277.7969 Q108.6406,276.9688 108.1719,276.5938 Q107.7188,276.2031 106.7656,276.2031 L104.8594,276.2031 Z M104.8594,272.5938 L104.8594,275.2344 L106.6094,275.2344 Q107.4844,275.2344 107.9063,274.9063 Q108.3281,274.5781 108.3281,273.9219 Q108.3281,273.25 107.9063,272.9219 Q107.4844,272.5938 106.6094,272.5938 L104.8594,272.5938 Z M103.6719,271.625 L106.7031,271.625 Q108.0625,271.625 108.7813,272.1875 Q109.5156,272.75 109.5156,273.7813 Q109.5156,274.5938 109.1406,275.0781 Q108.7656,275.5469 108.0469,275.6563 Q108.9219,275.8438 109.4063,276.4375 Q109.8906,277.0313 109.8906,277.9219 Q109.8906,279.0938 109.0938,279.7344 Q108.2969,280.375 106.8125,280.375 L103.6719,280.375 L103.6719,271.625 Z "/><line style="stroke: #A80036; stroke-width: 1.5;" x1="106" x2="106" y1="30" y2="50"/><polygon fill="#A80036" points="102,40,106,50,110,40,106,44" style="stroke: #A80036; stroke-width: 1.0;"/><line style="stroke: #A80036; stroke-width: 1.5;" x1="106" x2="106" y1="83.9688" y2="103.9688"/><polygon fill="#A80036" points="102,93.9688,106,103.9688,110,93.9688,106,97.9688" style="stroke: #A80036; stroke-width: 1.0;"/><line style="stroke: #A80036; stroke-width: 1.5;" x1="106" x2="106" y1="137.9375" y2="157.9375"/><polygon fill="#A80036" points="102,147.9375,106,157.9375,110,147.9375,106,151.9375" style="stroke: #A80036; stroke-width: 1.0;"/><line style="stroke: #A80036; stroke-width: 1.5;" x1="106" x2="106" y1="191.9063" y2="211.9063"/><polygon fill="#A80036" points="102,201.9063,106,211.9063,110,201.9063,106,205.9063" style="stroke: #A80036; stroke-width: 1.0;"/><line style="stroke: #A80036; stroke-width: 1.5;" x1="106" x2="106" y1="245.875" y2="265.875"/><polygon fill="#A80036" points="102,255.875,106,265.875,110,255.875,106,259.875" style="stroke: #A80036; stroke-width: 1.0;"/><!--MD5=[8545f0abd85199bcfa3993732f0dcc21]
@startuml control
  (A)
  :Sumar el PI al valor de PWM;
  :Establecer los limites;
  :Enviar PWM a motores;
  :Publicar errores en ROS;
  (B)
@enduml

PlantUML version 1.2020.10(Sun May 17 04:35:57 CDT 2020)
(GPL source distribution)
Java Runtime: OpenJDK Runtime Environment
JVM: OpenJDK 64-Bit Server VM
Java Version: 11.0.8+10-post-Ubuntu-0ubuntu118.04.1
Operating System: Linux
Default Encoding: UTF-8
Language: es
Country: MX
--></g></svg>